<?xml version="1.0" encoding="UTF-8" standalone="no"?>
<!-- Created with Inkscape (http://www.inkscape.org/) -->

<svg
   xmlns:dc="http://purl.org/dc/elements/1.1/"
   xmlns:cc="http://creativecommons.org/ns#"
   xmlns:rdf="http://www.w3.org/1999/02/22-rdf-syntax-ns#"
   xmlns:svg="http://www.w3.org/2000/svg"
   xmlns="http://www.w3.org/2000/svg"
   xmlns:sodipodi="http://sodipodi.sourceforge.net/DTD/sodipodi-0.dtd"
   xmlns:inkscape="http://www.inkscape.org/namespaces/inkscape"
   width="210mm"
   height="297mm"
   viewBox="0 0 744.09448819 1052.3622047"
   id="svg2"
   version="1.1"
   inkscape:version="0.91 r13725"
   sodipodi:docname="tomwal1.svg">
  <defs
     id="defs4" />
  <sodipodi:namedview
     id="base"
     pagecolor="#ffffff"
     bordercolor="#666666"
     borderopacity="1.0"
     inkscape:pageopacity="0.0"
     inkscape:pageshadow="2"
     inkscape:zoom="1.979899"
     inkscape:cx="380.40582"
     inkscape:cy="439.50851"
     inkscape:document-units="px"
     inkscape:current-layer="layer1"
     showgrid="false"
     inkscape:object-paths="true"
     inkscape:window-width="1859"
     inkscape:window-height="1056"
     inkscape:window-x="61"
     inkscape:window-y="24"
     inkscape:window-maximized="1" />
  <metadata
     id="metadata7">
    <rdf:RDF>
      <cc:Work
         rdf:about="">
        <dc:format>image/svg+xml</dc:format>
        <dc:type
           rdf:resource="http://purl.org/dc/dcmitype/StillImage" />
      </cc:Work>
    </rdf:RDF>
  </metadata>
  <g
     inkscape:label="Ebene 1"
     inkscape:groupmode="layer"
     id="layer1">
    <path
       style="fill:none;fill-rule:evenodd;stroke:#000000;stroke-width:1px;stroke-linecap:butt;stroke-linejoin:miter;stroke-opacity:1"
       d="m 378.57143,836.64792 c -80.9698,-1.84905 -162.00655,4.65009 -242.92151,-0.48622 -38.734755,-13.71331 -47.906617,-59.56629 -47.926417,-95.89349 -1.090019,-36.32827 -7.363057,-72.62162 -4.323278,-109.15897 2.303961,-32.78256 4.541575,-65.64302 9.029979,-98.14494 6.999892,-38.08308 33.168586,-68.57987 61.154536,-93.48409 43.65888,-30.59804 103.92225,-24.10728 149.62296,-1.59765 48.50742,17.17787 101.03234,15.43579 151.61265,20.76122 49.86639,2.51393 102.61978,30.19905 119.72482,79.43232 13.78031,42.61094 9.63089,88.6974 2.97177,132.24837 -4.21875,24.25746 -15.06151,46.6521 -23.70066,69.31039 -7.16809,28.0708 30.66062,51.44149 52.21513,32.22766 18.14386,-18.6799 5.09275,-46.19759 7.99035,-69.05487 -5.43543,-22.13095 15.0588,-26.97735 17.62881,-4.46018 9.37875,41.77581 54.33444,55.32791 86.4969,75.25963 -8.04023,11.51695 -45.51184,4.96551 -65.33583,8.31533 -26.98698,-0.57957 -46.17232,18.34161 -65.75733,33.60683 -46.75811,26.8749 -101.81569,6.80516 -152.07039,16.57981 -22.96894,3.03139 -46.01113,7.00978 -69.26963,5.96747"
       id="path3413"
       inkscape:connector-curvature="0" />
    <path
       style="fill:none;fill-rule:evenodd;stroke:#000000;stroke-width:1px;stroke-linecap:butt;stroke-linejoin:miter;stroke-opacity:1"
       d="m 128.57143,585.21934 c -13.95266,15.46867 -29.222188,35.39127 -43.354603,50.68999 -5.305082,19.20612 11.479861,36.67595 28.433713,42.65167 16.52914,5.86736 34.69029,6.78786 51.98057,4.82529 15.8564,-2.4713 22.99328,-18.74403 23.1436,-33.22424 2.17594,-24.32946 -10.49976,-49.67716 -32.95352,-60.29196 -7.98219,-4.78204 -18.15561,-9.16991 -27.2498,-4.65027"
       id="path3415"
       inkscape:connector-curvature="0"
       sodipodi:nodetypes="ccccccc" />
    <path
       style="fill:none;fill-rule:evenodd;stroke:#000000;stroke-width:1px;stroke-linecap:butt;stroke-linejoin:miter;stroke-opacity:1"
       d="m 506.42857,600.57648 c 9.25399,11.9241 32.69716,34.1575 50.62562,55.85986 17.84693,25.8535 -22.72081,47.0525 -31.73976,51.55373 -28.89474,10.23657 -78.16822,-3.37895 -69.45701,-41.79512 4.1371,-31.18986 28.21062,-48.91472 50.5712,-65.61846"
       id="path3417"
       inkscape:connector-curvature="0"
       sodipodi:nodetypes="ccccc" />
    <path
       style="fill:none;fill-rule:evenodd;stroke:#000000;stroke-width:1px;stroke-linecap:butt;stroke-linejoin:miter;stroke-opacity:1"
       d="m 144.28571,803.79078 c 66.60577,12.56349 133.98954,0.41263 200.93568,5.23495 54.0676,1.64248 107.48297,-13.86419 161.35813,-6.85334 12.81773,0.41179 26.61651,-3.70366 34.13477,-14.81029"
       id="path3419"
       inkscape:connector-curvature="0" />
    <ellipse
       style="fill:#ff0000;fill-rule:evenodd;stroke:#000000;stroke-width:1px;stroke-linecap:butt;stroke-linejoin:miter;stroke-opacity:1"
       id="path3421"
       cx="158.34142"
       cy="655.47028"
       rx="22.627127"
       ry="21.679516" />
    <ellipse
       style="fill:#ff0000;fill-rule:evenodd;stroke:#000000;stroke-width:1px;stroke-linecap:butt;stroke-linejoin:miter;stroke-opacity:1"
       id="path3423"
       cx="484.95532"
       cy="679.66974"
       rx="22.18754"
       ry="29.835302" />
    <path
       style="fill:none;fill-rule:evenodd;stroke:#000000;stroke-width:1px;stroke-linecap:butt;stroke-linejoin:miter;stroke-opacity:1"
       d="m 245.46363,809.2894 c 9.98363,3.58972 19.86142,8.3731 30.83739,6.69128 15.34274,0.32175 30.97492,-1.82336 45.48605,4.32482 15.60339,4.48124 31.94087,6.11191 47.99624,3.23247 11.47939,0.33598 22.7629,-2.40032 32.21599,-9.20392 6.17828,-5.34264 13.98228,-11.83669 22.70159,-10.61525"
       id="path3563"
       inkscape:connector-curvature="0" />
    <path
       style="fill:#a0a0a0;stroke:none;stroke-width:1px;stroke-linecap:butt;stroke-linejoin:miter;stroke-opacity:1"
       d="m 163.05299,836.73518 c -23.57351,-0.83647 -26.89385,-1.14678 -31.12716,-2.90911 -5.04097,-2.09856 -12.04769,-6.6853 -16.32554,-10.68702 -3.55012,-3.32096 -8.46377,-9.35387 -11.29575,-13.86876 -4.630753,-7.38259 -9.550841,-20.19087 -11.932018,-31.06219 -2.543848,-11.61399 -3.189687,-18.36117 -4.358339,-45.53219 -0.446128,-10.37243 -1.218106,-21.33483 -3.533683,-50.17976 -0.289903,-3.6113 -0.642024,-13.15724 -0.782491,-21.2132 l -0.255395,-14.64722 0.985218,3.59985 c 3.19184,11.66251 12.986081,22.09308 26.163318,27.86313 11.46097,5.01853 30.08669,7.66624 46.7461,6.64511 11.99635,-0.73531 15.80359,-1.98689 21.19241,-6.96678 4.80398,-4.43943 7.35432,-8.95944 9.5915,-16.99917 1.44834,-5.20487 1.83341,-19.96202 0.69193,-26.5165 -2.78459,-15.9893 -11.14887,-30.14732 -23.20019,-39.2704 -3.83537,-2.90345 -15.46784,-9.23815 -19.78248,-10.77295 -4.24944,-1.51161 -11.72935,-1.80879 -15.1182,-0.60065 -2.94622,1.05034 -4.08898,2.28769 -22.8912,24.78581 -6.803,8.14026 -14.800971,17.57256 -17.773264,20.96067 -2.972293,3.38811 -5.536676,6.50113 -5.698629,6.91782 -0.598242,1.53921 -0.33792,-3.97016 1.150031,-24.33886 3.389118,-46.39397 6.634009,-75.97603 9.55099,-87.07166 6.899462,-26.24422 24.254982,-52.44475 51.707822,-78.06006 10.7165,-9.9992 21.07734,-16.02374 36.00509,-20.93595 13.07673,-4.30311 26.16487,-6.27518 41.58451,-6.26578 24.66817,0.015 50.62844,5.93966 74.11288,16.914 7.0125,3.27696 20.40266,7.3589 33.00184,10.06049 20.2329,4.33845 39.51314,6.59053 80.30713,9.38047 12.36174,0.84544 27.58979,1.9857 33.84011,2.53391 6.25032,0.54822 12.84156,1.12135 14.64721,1.27363 33.75673,2.84693 66.77741,17.50854 88.56369,39.32343 13.25638,13.27378 21.79423,27.71676 26.82385,45.37631 8.7732,30.80371 9.54894,66.60391 2.5147,116.05373 -2.94565,20.70759 -6.12011,31.46651 -18.032,61.11423 -6.80837,16.94548 -7.91788,20.48256 -7.93583,25.29929 -0.0141,3.77731 1.61231,9.92655 3.62343,13.69978 3.63618,6.82218 12.38833,14.19647 19.98416,16.83804 16.37114,5.69331 31.58137,-0.63766 37.68855,-15.68712 3.04121,-7.49422 3.73276,-18.89464 2.03717,-33.584 -0.46492,-4.02798 -0.91762,-11.64201 -1.00601,-16.92005 -0.0884,-5.27805 -0.31567,-11.312 -0.50508,-13.4088 -0.98111,-10.85957 6.19921,-17.25392 12.29775,-10.95162 2.12839,2.19954 3.38841,5.22604 4.68014,11.24152 4.08551,19.026 16.06981,34.4112 37.66672,48.35574 6.30578,4.07147 13.65817,8.25545 27.72192,15.77548 6.11142,3.26784 13.2286,7.17772 15.81596,8.68862 5.30704,3.09905 5.34497,3.30487 1.01404,5.49952 -5.51392,2.79412 -14.82576,3.74067 -36.78051,3.73872 -19.81394,-0.002 -32.95886,1.06958 -40.72042,3.31879 -11.78257,3.41445 -21.20067,9.09854 -40.18129,24.25058 -6.24016,4.98145 -10.65273,8.08881 -13.54756,9.54025 -19.89459,9.97495 -41.45943,13.2152 -79.04443,11.87689 -21.27429,-0.75752 -44.47576,-0.76895 -52.02286,-0.0256 -3.3335,0.32833 -9.58382,1.1418 -13.8896,1.80773 -18.7979,2.90725 -41.23527,5.56616 -51.64405,6.12002 -5.7897,0.30807 -6.43972,0.25841 -6.43972,-0.49194 0,-0.76786 -2.69568,-0.83359 -33.71384,-0.82209 -18.54261,0.007 -50.07831,0.34257 -70.07933,0.74599 -38.6299,0.77918 -92.89513,0.87111 -112.0933,0.18989 l 0,0 z m 201.99687,-11.81319 c 3.05571,-0.40895 7.06024,-0.74544 8.89895,-0.74775 9.95804,-0.0125 21.41717,-3.9053 28.98667,-9.84712 10.59002,-8.31284 11.64778,-8.7844 22.21846,-9.90537 34.81668,-3.69214 56.45124,-4.2096 78.44985,-1.87637 12.91479,1.36978 25.1437,-2.17237 32.96169,-9.54746 3.69762,-3.48815 4.75007,-4.89081 4.26211,-5.68035 -0.15844,-0.25636 -2.04404,1.31018 -4.19024,3.48119 -3.24784,3.28541 -4.70674,4.32999 -8.70039,6.22961 -8.87951,4.22361 -14.8352,4.98221 -28.53681,3.63484 -16.6667,-1.63895 -42.03254,-1.04757 -67.10282,1.56445 -3.84931,0.40105 -8.28135,0.73045 -9.84899,0.732 -1.56763,0.002 -3.65179,0.22549 -4.63146,0.49767 -2.14366,0.59554 -22.43161,2.68007 -37.10965,3.81291 -13.8451,1.06855 -32.23245,1.16191 -53.60997,0.2722 -17.77984,-0.73998 -27.84419,-0.61459 -83.77078,1.04367 -28.02228,0.83088 -53.86802,0.17212 -73.4886,-1.87309 -7.08878,-0.73892 -23.07558,-3.02818 -24.875,-3.56202 -0.56485,-0.16758 -0.88389,0.0106 -0.88389,0.49361 0,1.13117 7.77843,2.5328 23.99113,4.32307 16.27834,1.79751 25.85153,2.22229 52.27539,2.31956 l 26.01143,0.0958 6.56599,2.38271 c 11.0688,4.01672 10.61659,3.9619 33.33503,4.0411 22.34647,0.0779 23.39975,0.18933 33.70476,3.5655 14.11666,4.62496 31.4532,6.37437 45.08714,4.54968 z M 512.79792,711.52236 c 9.87423,-1.20145 15.44232,-3.48371 26.50326,-10.86319 10.15527,-6.77527 16.44972,-13.13408 19.99022,-20.19468 4.96608,-9.9035 3.63484,-18.29022 -4.41269,-27.7996 -5.1493,-6.08469 -15.0755,-16.97498 -26.23628,-28.78452 -9.66818,-10.23018 -17.00789,-18.21633 -20.16764,-21.9439 -0.82417,-0.97227 -1.76492,-1.76777 -2.09054,-1.76776 -1.21232,2e-5 -16.42062,11.82307 -24.23475,18.84027 -13.12391,11.78548 -22.06027,25.66499 -25.59222,39.74858 -1.61144,6.42561 -2.49059,13.54875 -2.24175,18.16347 0.44978,8.34152 4.26567,16.1184 10.62031,21.64449 1.65607,1.44015 4.47807,3.94493 6.2711,5.56617 4.58474,4.1455 7.77669,5.49634 14.05108,5.94644 2.77792,0.19928 6.30082,0.60033 7.82868,0.89122 5.88138,1.1198 13.33449,1.3289 19.71122,0.55301 z"
       id="path3568"
       inkscape:connector-curvature="0" />
  </g>
</svg>
