<?xml version="1.0" encoding="UTF-8" standalone="no"?>
<!-- Created with Inkscape (http://www.inkscape.org/) -->

<svg
   xmlns:dc="http://purl.org/dc/elements/1.1/"
   xmlns:cc="http://creativecommons.org/ns#"
   xmlns:rdf="http://www.w3.org/1999/02/22-rdf-syntax-ns#"
   xmlns:svg="http://www.w3.org/2000/svg"
   xmlns="http://www.w3.org/2000/svg"
   xmlns:sodipodi="http://sodipodi.sourceforge.net/DTD/sodipodi-0.dtd"
   xmlns:inkscape="http://www.inkscape.org/namespaces/inkscape"
   width="210mm"
   height="297mm"
   viewBox="0 0 744.09448819 1052.3622047"
   id="svg2"
   version="1.1"
   inkscape:version="0.91 r13725"
   sodipodi:docname="tomwal1.svg">
  <defs
     id="defs4" />
  <sodipodi:namedview
     id="base"
     pagecolor="#ffffff"
     bordercolor="#666666"
     borderopacity="1.0"
     inkscape:pageopacity="0.0"
     inkscape:pageshadow="2"
     inkscape:zoom="0.98994949"
     inkscape:cx="288.81768"
     inkscape:cy="412.36968"
     inkscape:document-units="px"
     inkscape:current-layer="layer1"
     showgrid="false"
     inkscape:object-paths="true"
     inkscape:window-width="1859"
     inkscape:window-height="1056"
     inkscape:window-x="61"
     inkscape:window-y="24"
     inkscape:window-maximized="1" />
  <metadata
     id="metadata7">
    <rdf:RDF>
      <cc:Work
         rdf:about="">
        <dc:format>image/svg+xml</dc:format>
        <dc:type
           rdf:resource="http://purl.org/dc/dcmitype/StillImage" />
      </cc:Work>
    </rdf:RDF>
  </metadata>
  <g
     inkscape:label="Ebene 1"
     inkscape:groupmode="layer"
     id="layer1">
    <path
       style="fill:#fff6d5;fill-rule:evenodd;stroke:#000000;stroke-width:1px;stroke-linecap:butt;stroke-linejoin:miter;stroke-opacity:1"
       d="m 490.71429,858.79078 c -114.28572,125 -112.85715,123.57142 -112.85715,123.57142 L 577.14286,985.93363 660,864.50506 Z"
       id="path3632"
       inkscape:connector-curvature="0" />
    <path
       style="fill:none;fill-rule:evenodd;stroke:#000000;stroke-width:1px;stroke-linecap:butt;stroke-linejoin:miter;stroke-opacity:1"
       d="m 378.57143,836.64792 c -80.9698,-1.84905 -162.00655,4.65009 -242.92151,-0.48622 -38.734755,-13.71331 -47.906617,-59.56629 -47.926417,-95.89349 -1.090019,-36.32827 -7.363057,-72.62162 -4.323278,-109.15897 2.303961,-32.78256 4.541575,-65.64302 9.029979,-98.14494 6.999892,-38.08308 33.168586,-68.57987 61.154536,-93.48409 43.65888,-30.59804 103.92225,-24.10728 149.62296,-1.59765 48.50742,17.17787 101.03234,15.43579 151.61265,20.76122 49.86639,2.51393 102.61978,30.19905 119.72482,79.43232 13.78031,42.61094 9.63089,88.6974 2.97177,132.24837 -4.21875,24.25746 -15.06151,46.6521 -23.70066,69.31039 -7.16809,28.0708 30.66062,51.44149 52.21513,32.22766 18.14386,-18.6799 5.09275,-46.19759 7.99035,-69.05487 -5.43543,-22.13095 15.0588,-26.97735 17.62881,-4.46018 9.37875,41.77581 54.33444,55.32791 86.4969,75.25963 -8.04023,11.51695 -45.51184,4.96551 -65.33583,8.31533 -26.98698,-0.57957 -46.17232,18.34161 -65.75733,33.60683 -46.75811,26.8749 -101.81569,6.80516 -152.07039,16.57981 -22.96894,3.03139 -46.01113,7.00978 -69.26963,5.96747"
       id="path3413"
       inkscape:connector-curvature="0" />
    <path
       style="fill:none;fill-rule:evenodd;stroke:#000000;stroke-width:1px;stroke-linecap:butt;stroke-linejoin:miter;stroke-opacity:1"
       d="m 128.57143,585.21934 c -13.95266,15.46867 -29.222188,35.39127 -43.354603,50.68999 -5.305082,19.20612 11.479861,36.67595 28.433713,42.65167 16.52914,5.86736 34.69029,6.78786 51.98057,4.82529 15.8564,-2.4713 22.99328,-18.74403 23.1436,-33.22424 2.17594,-24.32946 -10.49976,-49.67716 -32.95352,-60.29196 -7.98219,-4.78204 -18.15561,-9.16991 -27.2498,-4.65027"
       id="path3415"
       inkscape:connector-curvature="0"
       sodipodi:nodetypes="ccccccc" />
    <path
       style="fill:none;fill-rule:evenodd;stroke:#000000;stroke-width:1px;stroke-linecap:butt;stroke-linejoin:miter;stroke-opacity:1"
       d="m 506.42857,600.57648 c 9.25399,11.9241 32.69716,34.1575 50.62562,55.85986 17.84693,25.8535 -22.72081,47.0525 -31.73976,51.55373 -28.89474,10.23657 -78.16822,-3.37895 -69.45701,-41.79512 4.1371,-31.18986 28.21062,-48.91472 50.5712,-65.61846"
       id="path3417"
       inkscape:connector-curvature="0"
       sodipodi:nodetypes="ccccc" />
    <path
       style="fill:none;fill-rule:evenodd;stroke:#000000;stroke-width:1px;stroke-linecap:butt;stroke-linejoin:miter;stroke-opacity:1"
       d="m 144.28571,803.79078 c 66.60577,12.56349 133.98954,0.41263 200.93568,5.23495 54.0676,1.64248 107.48297,-13.86419 161.35813,-6.85334 12.81773,0.41179 26.61651,-3.70366 34.13477,-14.81029"
       id="path3419"
       inkscape:connector-curvature="0" />
    <ellipse
       style="fill:#ff0000;fill-rule:evenodd;stroke:#000000;stroke-width:1px;stroke-linecap:butt;stroke-linejoin:miter;stroke-opacity:1"
       id="path3421"
       cx="158.34142"
       cy="655.47028"
       rx="22.627127"
       ry="21.679516" />
    <ellipse
       style="fill:#ff0000;fill-rule:evenodd;stroke:#000000;stroke-width:1px;stroke-linecap:butt;stroke-linejoin:miter;stroke-opacity:1"
       id="path3423"
       cx="484.95532"
       cy="679.66974"
       rx="22.18754"
       ry="29.835302" />
    <path
       style="fill:none;fill-rule:evenodd;stroke:#000000;stroke-width:1px;stroke-linecap:butt;stroke-linejoin:miter;stroke-opacity:1"
       d="m 245.46363,809.2894 c 9.98363,3.58972 19.86142,8.3731 30.83739,6.69128 15.34274,0.32175 30.97492,-1.82336 45.48605,4.32482 15.60339,4.48124 31.94087,6.11191 47.99624,3.23247 11.47939,0.33598 22.7629,-2.40032 32.21599,-9.20392 6.17828,-5.34264 13.98228,-11.83669 22.70159,-10.61525"
       id="path3563"
       inkscape:connector-curvature="0" />
    <path
       style="fill:#a0a0a0;stroke:none;stroke-width:1px;stroke-linecap:butt;stroke-linejoin:miter;stroke-opacity:1"
       d="m 163.05299,836.73518 c -23.57351,-0.83647 -26.89385,-1.14678 -31.12716,-2.90911 -5.04097,-2.09856 -12.04769,-6.6853 -16.32554,-10.68702 -3.55012,-3.32096 -8.46377,-9.35387 -11.29575,-13.86876 -4.630753,-7.38259 -9.550841,-20.19087 -11.932018,-31.06219 -2.543848,-11.61399 -3.189687,-18.36117 -4.358339,-45.53219 -0.446128,-10.37243 -1.218106,-21.33483 -3.533683,-50.17976 -0.289903,-3.6113 -0.642024,-13.15724 -0.782491,-21.2132 l -0.255395,-14.64722 0.985218,3.59985 c 3.19184,11.66251 12.986081,22.09308 26.163318,27.86313 11.46097,5.01853 30.08669,7.66624 46.7461,6.64511 11.99635,-0.73531 15.80359,-1.98689 21.19241,-6.96678 4.80398,-4.43943 7.35432,-8.95944 9.5915,-16.99917 1.44834,-5.20487 1.83341,-19.96202 0.69193,-26.5165 -2.78459,-15.9893 -11.14887,-30.14732 -23.20019,-39.2704 -3.83537,-2.90345 -15.46784,-9.23815 -19.78248,-10.77295 -4.24944,-1.51161 -11.72935,-1.80879 -15.1182,-0.60065 -2.94622,1.05034 -4.08898,2.28769 -22.8912,24.78581 -6.803,8.14026 -14.800971,17.57256 -17.773264,20.96067 -2.972293,3.38811 -5.536676,6.50113 -5.698629,6.91782 -0.598242,1.53921 -0.33792,-3.97016 1.150031,-24.33886 3.389118,-46.39397 6.634009,-75.97603 9.55099,-87.07166 6.899462,-26.24422 24.254982,-52.44475 51.707822,-78.06006 10.7165,-9.9992 21.07734,-16.02374 36.00509,-20.93595 13.07673,-4.30311 26.16487,-6.27518 41.58451,-6.26578 24.66817,0.015 50.62844,5.93966 74.11288,16.914 7.0125,3.27696 20.40266,7.3589 33.00184,10.06049 20.2329,4.33845 39.51314,6.59053 80.30713,9.38047 12.36174,0.84544 27.58979,1.9857 33.84011,2.53391 6.25032,0.54822 12.84156,1.12135 14.64721,1.27363 33.75673,2.84693 66.77741,17.50854 88.56369,39.32343 13.25638,13.27378 21.79423,27.71676 26.82385,45.37631 8.7732,30.80371 9.54894,66.60391 2.5147,116.05373 -2.94565,20.70759 -6.12011,31.46651 -18.032,61.11423 -6.80837,16.94548 -7.91788,20.48256 -7.93583,25.29929 -0.0141,3.77731 1.61231,9.92655 3.62343,13.69978 3.63618,6.82218 12.38833,14.19647 19.98416,16.83804 16.37114,5.69331 31.58137,-0.63766 37.68855,-15.68712 3.04121,-7.49422 3.73276,-18.89464 2.03717,-33.584 -0.46492,-4.02798 -0.91762,-11.64201 -1.00601,-16.92005 -0.0884,-5.27805 -0.31567,-11.312 -0.50508,-13.4088 -0.98111,-10.85957 6.19921,-17.25392 12.29775,-10.95162 2.12839,2.19954 3.38841,5.22604 4.68014,11.24152 4.08551,19.026 16.06981,34.4112 37.66672,48.35574 6.30578,4.07147 13.65817,8.25545 27.72192,15.77548 6.11142,3.26784 13.2286,7.17772 15.81596,8.68862 5.30704,3.09905 5.34497,3.30487 1.01404,5.49952 -5.51392,2.79412 -14.82576,3.74067 -36.78051,3.73872 -19.81394,-0.002 -32.95886,1.06958 -40.72042,3.31879 -11.78257,3.41445 -21.20067,9.09854 -40.18129,24.25058 -6.24016,4.98145 -10.65273,8.08881 -13.54756,9.54025 -19.89459,9.97495 -41.45943,13.2152 -79.04443,11.87689 -21.27429,-0.75752 -44.47576,-0.76895 -52.02286,-0.0256 -3.3335,0.32833 -9.58382,1.1418 -13.8896,1.80773 -18.7979,2.90725 -41.23527,5.56616 -51.64405,6.12002 -5.7897,0.30807 -6.43972,0.25841 -6.43972,-0.49194 0,-0.76786 -2.69568,-0.83359 -33.71384,-0.82209 -18.54261,0.007 -50.07831,0.34257 -70.07933,0.74599 -38.6299,0.77918 -92.89513,0.87111 -112.0933,0.18989 l 0,0 z m 201.99687,-11.81319 c 3.05571,-0.40895 7.06024,-0.74544 8.89895,-0.74775 9.95804,-0.0125 21.41717,-3.9053 28.98667,-9.84712 10.59002,-8.31284 11.64778,-8.7844 22.21846,-9.90537 34.81668,-3.69214 56.45124,-4.2096 78.44985,-1.87637 12.91479,1.36978 25.1437,-2.17237 32.96169,-9.54746 3.69762,-3.48815 4.75007,-4.89081 4.26211,-5.68035 -0.15844,-0.25636 -2.04404,1.31018 -4.19024,3.48119 -3.24784,3.28541 -4.70674,4.32999 -8.70039,6.22961 -8.87951,4.22361 -14.8352,4.98221 -28.53681,3.63484 -16.6667,-1.63895 -42.03254,-1.04757 -67.10282,1.56445 -3.84931,0.40105 -8.28135,0.73045 -9.84899,0.732 -1.56763,0.002 -3.65179,0.22549 -4.63146,0.49767 -2.14366,0.59554 -22.43161,2.68007 -37.10965,3.81291 -13.8451,1.06855 -32.23245,1.16191 -53.60997,0.2722 -17.77984,-0.73998 -27.84419,-0.61459 -83.77078,1.04367 -28.02228,0.83088 -53.86802,0.17212 -73.4886,-1.87309 -7.08878,-0.73892 -23.07558,-3.02818 -24.875,-3.56202 -0.56485,-0.16758 -0.88389,0.0106 -0.88389,0.49361 0,1.13117 7.77843,2.5328 23.99113,4.32307 16.27834,1.79751 25.85153,2.22229 52.27539,2.31956 l 26.01143,0.0958 6.56599,2.38271 c 11.0688,4.01672 10.61659,3.9619 33.33503,4.0411 22.34647,0.0779 23.39975,0.18933 33.70476,3.5655 14.11666,4.62496 31.4532,6.37437 45.08714,4.54968 z M 512.79792,711.52236 c 9.87423,-1.20145 15.44232,-3.48371 26.50326,-10.86319 10.15527,-6.77527 16.44972,-13.13408 19.99022,-20.19468 4.96608,-9.9035 3.63484,-18.29022 -4.41269,-27.7996 -5.1493,-6.08469 -15.0755,-16.97498 -26.23628,-28.78452 -9.66818,-10.23018 -17.00789,-18.21633 -20.16764,-21.9439 -0.82417,-0.97227 -1.76492,-1.76777 -2.09054,-1.76776 -1.21232,2e-5 -16.42062,11.82307 -24.23475,18.84027 -13.12391,11.78548 -22.06027,25.66499 -25.59222,39.74858 -1.61144,6.42561 -2.49059,13.54875 -2.24175,18.16347 0.44978,8.34152 4.26567,16.1184 10.62031,21.64449 1.65607,1.44015 4.47807,3.94493 6.2711,5.56617 4.58474,4.1455 7.77669,5.49634 14.05108,5.94644 2.77792,0.19928 6.30082,0.60033 7.82868,0.89122 5.88138,1.1198 13.33449,1.3289 19.71122,0.55301 z"
       id="path3568"
       inkscape:connector-curvature="0" />
    <path
       style="fill:none;fill-rule:evenodd;stroke:#000000;stroke-width:1px;stroke-linecap:butt;stroke-linejoin:miter;stroke-opacity:1"
       d="M 88.715561,747.54686 C 81.558819,742.98704 73.157103,739.08432 69.28382,731.0307 63.838187,723.28851 58.382011,715.54006 54.059526,707.10163 47.222919,695.73168 42.400489,683.23258 39.579881,670.29694 c -1.872542,-5.1151 -4.3815,-9.44389 -3.909959,-12.83709 -3.246895,-7.60864 -7.479505,-14.77843 -11.415128,-21.99064 -4.71541,-8.84115 7.797814,-5.32135 11.472724,-9.49426 6.675063,-4.59005 10.219448,-15.68816 3.387292,-21.67796 -4.964217,-4.56173 -14.945707,-5.76231 -18.199217,1.41313 -0.576011,8.20202 -5.773223,-1.39902 -10.233803,-2.30526 -4.8723682,-3.94693 -11.00232795,-0.19635 -8.5585195,5.94671 -1.0086572,2.76907 1.0634494,11.88274 1.4867921,10.22679 -3.84376417,-3.65181 -8.2046734,-10.44591 -13.9534556,-9.20101 -0.807427,5.2006 -2.453873,11.8191 1.9446304,16.11275 3.8767919,4.63772 10.5309572,4.39091 15.5382162,5.59527 4.3295074,3.68082 -5.8984,16.29228 3.4543194,11.30887 6.579978,-2.41337 23.700417,6.98027 25.834798,13.96796"
       id="path3570"
       inkscape:connector-curvature="0"
       sodipodi:nodetypes="ccccccccccccccccc" />
    <path
       style="fill:none;fill-rule:evenodd;stroke:#000000;stroke-width:1px;stroke-linecap:butt;stroke-linejoin:miter;stroke-opacity:1"
       d="m 557.47242,728.30744 c -5.96206,-2.47797 10.83505,2.57763 14.53858,3.0449 20.60666,2.48327 37.80677,15.45154 53.29882,28.30369 7.79867,13.0335 17.74506,27.14442 15.32198,43.29512 3.12628,17.45214 -16.4102,26.23379 -23.87618,39.76895 -12.60049,14.62254 -28.37764,26.06303 -41.16695,40.56849 -9.7114,8.50865 -19.43285,26.07334 -34.50548,16.53723 -12.46844,-3.60461 -25.4348,-2.18629 -38.22605,-2.46362 -7.83098,5.55794 -4.3306,21.295 6.25281,12.75837 8.55271,-4.29302 18.14928,-2.32298 27.31862,-2.75837 4.31995,4.69325 25.31515,2.78611 10.73392,9.87675 -12.45596,4.77472 6.92548,7.00641 11.89498,6.29119 5.63554,12.60004 -0.70863,-4.31932 5.22824,-9.02508 -16.45581,-2.77234 -8.54343,28.62066 4.00398,13.10476 13.25525,-5.38135 10.97641,-22.20923 -2.56585,-23.8364 -0.0697,-3.82198 -0.26802,-7.66439 0.70473,-11.41122"
       id="path3572"
       inkscape:connector-curvature="0" />
    <path
       style="fill:#87cdde"
       d="m 170.86515,836.95314 c -0.11229,-0.11212 -4.666,-0.35262 -10.11935,-0.53444 -13.30293,-0.44354 -21.93064,-0.92547 -23.17556,-1.29456 -5.24075,-1.55375 -7.53589,-2.13564 -7.98963,-2.02562 -0.29464,0.0715 -0.53571,-0.21049 -0.53571,-0.62653 0,-0.41604 -0.32143,-0.55779 -0.71429,-0.31499 -0.39285,0.2428 -0.71428,0.10931 -0.71428,-0.29664 0,-0.40596 -0.92148,-1.21461 -2.04773,-1.79702 -1.12626,-0.58241 -3.53697,-2.19569 -5.35715,-3.58506 -1.82017,-1.38937 -3.30941,-2.33839 -3.30941,-2.10894 0,0.61637 -8.48711,-9.63496 -10.55416,-12.74805 -0.97819,-1.47322 -2.05725,-2.67857 -2.3979,-2.67857 -0.34065,0 -0.55116,-0.24107 -0.46781,-0.53572 0.16324,-0.577 -4.372721,-10.3011 -5.081141,-10.89285 -0.235157,-0.19643 -0.445484,-0.67858 -0.467394,-1.07143 -0.09462,-1.6967 -1.237394,-4.64286 -1.800895,-4.64286 -0.337939,0 -0.429419,-0.48214 -0.203288,-1.07143 0.22613,-0.58928 0.135685,-1.07206 -0.200989,-1.07285 -0.336674,-7.1e-4 -0.683955,-1.02118 -0.771735,-2.26755 -0.08778,-1.24636 -0.409209,-2.45108 -0.714286,-2.67715 -0.305077,-0.22606 -0.638863,-1.21459 -0.741746,-2.19673 -0.102882,-0.98215 -0.381085,-2.26786 -0.618227,-2.85715 -0.237143,-0.58928 -0.557269,-2.31155 -0.711392,-3.82725 -0.154123,-1.51571 -0.491831,-3.09823 -0.750463,-3.5167 -0.258633,-0.41848 -0.529658,-1.58907 -0.602278,-2.60131 -0.759533,-10.58699 -1.375045,-15.87994 -1.883177,-16.19399 -0.692531,-0.428 -0.171772,-3.4106 1.025157,-5.87149 0.574568,-1.18131 0.583388,-1.79333 0.03088,-2.14286 -0.964179,-0.60995 -1.565716,-5.26487 -2.047766,-15.8464 -0.485007,-10.64645 -1.230463,-21.61268 -2.816209,-41.42857 -0.204346,-2.55357 -0.51356,-7.05357 -0.687141,-10 -0.173581,-2.94643 -0.384142,-5.83929 -0.467915,-6.42857 -0.08377,-0.58929 -0.101677,-5.51004 -0.03979,-10.93502 0.07733,-6.77862 0.350789,-9.71632 0.874332,-9.39275 0.418995,0.25895 0.591018,0.64161 0.382274,0.85035 -0.208743,0.20875 -0.0011,1.06049 0.461372,1.89276 0.462499,0.83228 0.772618,1.7543 0.689155,2.04894 -0.08346,0.29465 0.188647,0.53572 0.604689,0.53572 0.416043,0 0.587872,0.27275 0.381843,0.60611 -0.206028,0.33336 0.257145,1.28421 1.029274,2.11299 0.772129,0.82878 1.403871,1.86244 1.403871,2.29703 0,1.21065 10.702865,11.50381 11.469225,11.03017 0.3705,-0.22898 0.67363,-0.0707 0.67363,0.35167 0,0.4224 1.20536,1.3253 2.67857,2.00644 1.47322,0.68115 2.83929,1.41609 3.03572,1.63321 1.23239,1.36219 13.09061,5.23977 18.50132,6.04983 1.0207,0.15281 2.98082,0.46349 4.35582,0.69039 14.79088,2.44078 35.04885,1.7803 41.78572,-1.36237 4.12493,-1.92423 9.64285,-6.48554 9.64285,-7.97113 0,-0.55868 0.32143,-1.01577 0.71429,-1.01577 0.39286,0 0.71428,-0.48214 0.71428,-1.07143 0,-0.58928 0.29978,-1.07143 0.66615,-1.07143 0.67819,0 1.87575,-2.77517 1.61823,-3.75 -0.0778,-0.29464 0.15437,-0.53571 0.51601,-0.53571 0.5587,0 1.58451,-2.90579 1.89119,-5.35714 0.0491,-0.39286 0.34338,-1.30189 0.65385,-2.02006 0.72056,-1.66674 0.85306,-22.1692 0.16467,-25.47994 -0.2859,-1.375 -0.63835,-3.14286 -0.78324,-3.92858 -0.54513,-2.95622 -1.37842,-5.76144 -2.12178,-7.14285 -0.4228,-0.78572 -0.80633,-1.58929 -0.85229,-1.78572 -0.63645,-2.7206 -1.32023,-4.28571 -1.87238,-4.28571 -0.37345,0 -0.48035,-0.32143 -0.23755,-0.71429 0.2428,-0.39285 0.10106,-0.71428 -0.31498,-0.71428 -0.41605,0 -0.67609,-0.25882 -0.57788,-0.57517 0.27685,-0.8917 -5.205,-9.47981 -6.32548,-9.90978 -0.54777,-0.2102 -0.99594,-0.73741 -0.99594,-1.17158 0,-1.01376 -5.77119,-6.9149 -6.76262,-6.9149 -0.41299,0 -1.16015,-0.65533 -1.66036,-1.45629 -0.5002,-0.80095 -1.22038,-1.26413 -1.60039,-1.02928 -0.38001,0.23486 -0.69092,0.0702 -0.69092,-0.36587 0,-0.43608 -1.20536,-1.29475 -2.67857,-1.90815 -1.47322,-0.61339 -2.83929,-1.35667 -3.03572,-1.65173 -0.63595,-0.95527 -12.3893,-6.54117 -14.62058,-6.94857 -1.19082,-0.21743 -4.6244,-0.41053 -7.63018,-0.42912 -5.40749,-0.0334 -5.50339,-0.001 -9.10714,3.01556 -2.00315,1.67713 -3.6421,3.36158 -3.6421,3.74322 0,0.38164 -0.96428,1.50528 -2.14285,2.49698 -1.17857,0.99171 -2.14286,2.25667 -2.14286,2.81103 0,0.55436 -0.29009,1.00793 -0.64464,1.00793 -0.66486,0 -17.58742,19.91571 -17.77579,20.91986 -0.0581,0.30949 -1.093648,1.39413 -2.301306,2.41031 -1.207659,1.01618 -2.04475,1.99858 -1.860203,2.18313 0.184548,0.18455 -0.776958,1.31233 -2.136679,2.50618 -1.359721,1.19385 -2.31161,2.33125 -2.11531,2.52755 0.196301,0.1963 -0.457005,0.99714 -1.451789,1.77963 -0.994785,0.7825 -2.59506,2.6684 -3.556167,4.19089 -0.961106,1.5225 -1.988433,2.76817 -2.282948,2.76817 -0.813778,0 -0.233255,-12.45653 1.647779,-35.35715 0.193614,-2.35714 0.532015,-6.53571 0.752004,-9.28571 1.106072,-13.82662 2.660141,-30.30484 3.60401,-38.21429 0.164085,-1.375 0.451182,-3.94642 0.637993,-5.71428 0.452305,-4.28032 2.92198,-18.72147 3.528469,-20.63235 0.264663,-0.83388 0.576511,-2.23809 0.692997,-3.12047 0.116486,-0.88238 0.600989,-2.56861 1.076675,-3.74718 0.475686,-1.17857 0.90886,-2.70536 0.962611,-3.39286 0.05375,-0.6875 0.385145,-1.25 0.736431,-1.25 0.351287,0 0.461657,-0.46138 0.245267,-1.02528 -0.216391,-0.5639 -0.160163,-1.1264 0.124951,-1.25 0.626081,-0.2714 5.563365,-11.53651 5.228945,-11.93058 -0.12942,-0.1525 0.0768,-0.47392 0.45826,-0.71428 0.9738,-0.61357 5.3504,-8.10515 5.36707,-9.187 0.008,-0.49107 0.23336,-0.89286 0.50177,-0.89286 0.40334,0 8.17,-11.1671 8.7414,-12.56862 0.0964,-0.23653 1.53195,-1.90768 3.19002,-3.71366 1.65807,-1.80598 2.88672,-3.41156 2.73034,-3.56794 -0.15638,-0.15638 0.82816,-1.26112 2.18789,-2.45497 1.35972,-1.19385 2.34541,-2.29744 2.19043,-2.45242 -0.64945,-0.64945 23.84738,-23.72776 28.26952,-26.63254 2.65179,-1.74188 4.82143,-3.4274 4.82143,-3.7456 0,-0.31819 0.27233,-0.49818 0.60518,-0.39996 0.78714,0.23226 12.4484,-5.31697 13.13388,-6.25 0.28863,-0.39286 0.5297,-0.49053 0.53572,-0.21705 0.006,0.27349 1.85915,-0.1395 4.11808,-0.91774 2.25892,-0.77824 6.03571,-1.89956 8.39285,-2.49183 2.35715,-0.59226 4.76786,-1.27332 5.35715,-1.51346 0.58928,-0.24014 1.60545,-0.37184 2.25815,-0.29266 0.6527,0.0792 1.3862,-0.17882 1.63002,-0.57332 0.2438,-0.39449 0.91514,-0.5362 1.49185,-0.3149 0.5767,0.2213 1.61105,0.17468 2.29855,-0.10361 1.26145,-0.51062 2.04282,-0.59679 13.03571,-1.43763 7.92152,-0.60592 9.75908,-0.60163 17.85714,0.0417 3.73215,0.2965 7.91072,0.61636 9.28572,0.7108 1.375,0.0944 3.0673,0.40291 3.76067,0.68549 0.69337,0.28258 1.89841,0.34701 2.67786,0.14318 0.77945,-0.20383 1.59719,-0.0793 1.8172,0.27663 0.22,0.35597 1.11232,0.64722 1.98292,0.64722 0.87059,0 5.58626,0.97759 10.47925,2.17241 4.89298,1.19483 9.38492,2.27154 9.98208,2.39269 0.59715,0.12116 1.56788,0.42581 2.15716,0.67701 3.30237,1.4077 9.28728,3.18138 9.29665,2.75514 0.006,-0.27349 0.24709,-0.15368 0.53572,0.26622 0.71044,1.03358 6.32431,3.1989 6.87245,2.65076 0.24092,-0.24092 0.43804,-0.0979 0.43804,0.31786 0,0.71102 3.29672,1.99759 4.46428,1.74223 0.29465,-0.0644 0.53572,0.16159 0.53572,0.50229 0,0.60671 10.39611,4.79704 13.21428,5.32623 0.78572,0.14755 1.91072,0.47352 2.5,0.7244 0.58929,0.25088 1.71429,0.57231 2.5,0.71429 0.78572,0.14198 1.91072,0.45351 2.5,0.6923 1.47723,0.59858 9.73355,2.65397 12.4299,3.09439 3.51238,0.5737 4.28726,0.7458 5.42725,1.20535 0.58928,0.23756 2.51785,0.62836 4.28571,0.86846 1.76786,0.2401 4.09719,0.5874 5.17628,0.77177 7.8518,1.34156 17.49067,2.61949 26.25229,3.48057 7.3199,0.71939 18.66093,1.70961 24.64286,2.15164 2.35714,0.17418 6.85714,0.50657 10,0.73864 3.14286,0.23207 7.80357,0.56204 10.35714,0.73326 10.16222,0.68139 23.77941,1.73958 35.71429,2.77533 2.16071,0.18752 5.85714,0.49785 8.21428,0.68963 5.15926,0.41975 23.0326,3.68041 25.6693,4.68289 1.03414,0.39318 2.11018,0.66756 2.3912,0.60973 0.28101,-0.0578 0.99308,0.10421 1.58236,0.36008 3.24077,1.40715 11.43016,3.89058 11.43951,3.46903 0.006,-0.27124 0.24708,-0.12351 0.53571,0.3283 0.28863,0.4518 1.16764,0.93395 1.95335,1.07143 0.78572,0.13748 1.85332,0.65175 2.37245,1.14282 0.8286,0.7838 1.88716,1.03974 3.44055,0.83185 0.25072,-0.0336 0.6525,0.24572 0.89286,0.62061 0.62338,0.97232 7.93479,4.57536 7.94794,3.91671 0.006,-0.30126 0.24708,-0.19401 0.53571,0.23833 0.73341,1.09861 6.76029,4.80916 7.81129,4.80916 0.47646,0 1.03857,0.44895 1.24913,0.99766 0.21057,0.54871 0.67286,0.81841 1.02732,0.59934 0.35447,-0.21907 0.83662,0.10235 1.07143,0.71428 0.23482,0.61193 0.75064,0.91255 1.14628,0.66803 0.39563,-0.24451 0.71933,-0.14873 0.71933,0.21286 0,0.36158 2.33036,2.44494 5.17857,4.62967 2.84821,2.18473 8.07143,6.97839 11.60714,10.65256 6.35839,6.60739 11.8064,12.71608 11.34077,12.71608 -0.13229,0 1.22418,2.2642 3.01437,5.03155 3.43039,5.30284 6.99248,12.6962 9.27657,19.25416 0.75256,2.16072 1.61136,4.03638 1.90846,4.16815 0.29709,0.13178 0.37515,0.50658 0.17346,0.83292 -0.20168,0.32633 0.009,1.50424 0.46724,2.61756 0.45867,1.11333 0.77388,2.40178 0.70045,2.86322 -0.0734,0.46145 0.18243,1.03425 0.56855,1.27288 0.38611,0.23864 0.53344,0.87322 0.32738,1.41018 -0.20605,0.53697 -0.0261,1.19174 0.4,1.45506 0.42605,0.26331 0.6284,0.71535 0.44967,1.00453 -0.17872,0.28918 -0.0121,1.79376 0.37038,3.3435 1.0831,4.38915 1.32794,5.83827 2.34665,13.88915 3.22647,25.49893 2.26613,55.90468 -2.8877,91.42857 -0.19948,1.375 -0.45768,3.30357 -0.57376,4.28571 -0.11608,0.98215 -0.44474,2.34822 -0.73034,3.03572 -0.2856,0.6875 -0.33426,1.73214 -0.10813,2.32143 0.22613,0.58928 0.0624,1.07142 -0.36399,1.07142 -0.44166,0 -0.62828,0.76827 -0.43378,1.78572 0.18775,0.98214 0.14487,1.78638 -0.0953,1.78721 -0.49646,0.001 -3.34638,11.311 -3.1946,12.67708 0.0546,0.49107 -0.12568,0.89285 -0.40053,0.89285 -0.48272,0 -3.25705,8.19172 -3.2658,9.64286 -0.002,0.39286 -0.18704,0.875 -0.41038,1.07143 -0.75672,0.66553 -4.21014,10.71421 -3.68592,10.72522 0.28631,0.006 0.17701,0.24709 -0.2429,0.53571 -0.97674,0.67138 -3.32798,6.59261 -2.6236,6.60715 0.29145,0.006 0.16027,0.24708 -0.29154,0.53571 -0.45181,0.28863 -0.93395,1.16764 -1.07143,1.95335 -0.13748,0.78572 -0.4589,1.58929 -0.71428,1.78572 -0.25538,0.19642 -0.57681,1 -0.71429,1.78571 -0.43702,2.49763 -1.52488,3.21789 -2.94541,1.95011 -1.00912,-0.9006 -1.44511,-0.9499 -2.14286,-0.24229 -0.69319,0.70299 -0.58666,1.10189 0.51054,1.91169 0.76259,0.56284 1.88759,1.02827 2.5,1.03428 0.8051,0.008 0.8712,0.16487 0.23866,0.56672 -0.48115,0.30569 -0.99536,1.18469 -1.14269,1.95335 -0.14733,0.76866 -0.46322,1.87971 -0.70199,2.469 -2.39879,5.92031 -3.50101,11.23503 -3.10861,14.98925 0.23505,2.24881 0.72009,4.8587 1.07788,5.79975 0.35778,0.94105 0.6415,1.87171 0.63047,2.06814 -0.011,0.19643 0.70614,1.78059 1.5937,3.52034 2.06371,4.04522 11.62724,13.62252 13.60293,13.62252 0.38986,0 0.70885,0.27261 0.70885,0.6058 0,0.66475 4.5915,2.89431 6.81542,3.30948 0.76938,0.14362 1.39886,0.32675 1.39886,0.40694 0,0.72129 13.78079,1.54262 15.35714,0.91528 0.58929,-0.23452 1.84585,-0.52815 2.79238,-0.6525 0.94651,-0.12435 1.98623,-0.64435 2.31049,-1.15555 0.32425,-0.5112 0.59447,-0.68012 0.60048,-0.3754 0.0371,1.8814 9.22631,-5.6895 11.943,-9.83977 1.72963,-2.64233 3.61936,-7.40548 4.16354,-10.49435 0.22474,-1.27566 0.54578,-2.45655 0.71342,-2.62419 0.46844,-0.46844 5.50443,3.04189 8.12849,5.66594 1.28993,1.28993 3.38503,4.45875 4.65578,7.04182 1.27075,2.58308 3.78905,7.34828 5.59622,10.58935 2.15169,3.85897 2.9486,5.89286 2.3089,5.89286 -0.53726,0 -1.8817,0.34402 -2.98762,0.7645 -1.10594,0.42047 -2.02493,0.66154 -2.0422,0.53572 -0.0173,-0.12584 -0.90121,0.34112 -1.96429,1.03767 -1.06308,0.69656 -1.93287,1.09372 -1.93287,0.88258 0,-1.36344 -18.70792,10.15675 -23.07252,14.20788 -1.1006,1.02155 -2.13511,1.85737 -2.29892,1.85737 -0.1638,0 -4.39099,3.10155 -9.39374,6.89235 -8.17433,6.19403 -16.41838,10.87327 -21.32786,12.10547 -0.97026,0.24352 -1.7641,0.74831 -1.7641,1.12177 0,0.37345 -0.2813,0.50516 -0.6251,0.29267 -0.5306,-0.32793 -4.80703,0.78906 -8.66062,2.26211 -0.58928,0.22526 -1.33306,0.35168 -1.65283,0.28094 -0.31977,-0.0707 -1.92691,0.24675 -3.57143,0.70555 -2.93145,0.81784 -3.63007,0.93631 -9.4186,1.59714 -7.7188,0.88121 -13.08665,1.04391 -33.21428,1.00673 -54.84049,-0.10129 -60.56464,-0.006 -68.92857,1.14644 -1.17857,0.1624 -4.07143,0.50325 -6.42857,0.75743 -2.35715,0.2542 -4.92858,0.66034 -5.71429,0.90255 -0.78571,0.2422 -2.23214,0.51724 -3.21429,0.61118 -9.45273,0.9042 -11.81917,1.18905 -12.28867,1.47922 -0.29958,0.18515 -2.71968,0.4899 -5.37801,0.67722 -2.65832,0.18732 -5.44657,0.53085 -6.1961,0.7634 -0.74954,0.23256 -2.67811,0.51614 -4.28572,0.63018 -1.60761,0.11405 -5.01221,0.40962 -7.56578,0.65683 -5.9566,0.57666 -13.31432,0.45216 -15.26397,-0.25827 -1.49673,-0.5454 -58.4683,-0.39716 -102.59317,0.26694 -28.08218,0.42266 -103.61868,0.81609 -103.89404,0.54114 z m 194.25118,-11.8331 c 1.57143,-0.17131 5.99349,-0.48881 9.82681,-0.70557 3.83332,-0.21675 7.3545,-0.63193 7.82484,-0.92262 0.47034,-0.29069 1.75885,-0.62745 2.86334,-0.74837 1.1045,-0.12091 3.20832,-0.75543 4.67517,-1.41002 1.46684,-0.6546 2.8277,-1.22296 3.02412,-1.26301 1.55255,-0.31661 5,-2.1389 5,-2.64296 0,-0.34519 0.40179,-0.63194 0.89286,-0.63721 0.92074,-0.01 3.7407,-2.02078 6.7023,-4.77938 0.92981,-0.86608 1.69056,-1.37875 1.69056,-1.1393 0,0.23947 0.5625,-0.0591 1.25,-0.66353 3.31328,-2.9128 10.21903,-5.12447 18.39286,-5.89057 10.59571,-0.99311 15.98081,-1.44172 25.35714,-2.11238 7.51426,-0.53748 40.04954,-0.4574 46.07143,0.11339 6.57139,0.62288 15.08966,0.61304 18.21428,-0.021 1.375,-0.27903 3.14286,-0.62587 3.92857,-0.77076 3.384,-0.62401 5.35715,-1.35671 5.35715,-1.9893 0,-0.37345 0.2744,-0.50941 0.6098,-0.30213 1.3554,0.83768 14.33933,-9.26243 14.37912,-11.18542 0.0263,-1.26966 -1.66614,-0.29685 -5.45872,3.13773 -4.01027,3.63172 -13.16227,8.523 -16.67306,8.9109 -0.98214,0.10852 -2.91071,0.4291 -4.28571,0.71242 -1.375,0.28331 -2.66072,0.49067 -2.85715,0.46078 -4.30122,-0.6543 -20.96888,-1.22681 -35.71428,-1.22673 -19.47398,1.1e-4 -25.58872,0.28285 -44.64286,2.06424 -4.92605,0.46054 -12.46792,0.99988 -14.77447,1.05657 -1.05454,0.0259 -2.10947,0.35801 -2.34431,0.73798 -0.23483,0.37997 -0.84884,0.52897 -1.36446,0.33111 -0.51562,-0.19786 -3.47854,-0.0229 -6.58427,0.38877 -6.28937,0.83371 -10.92274,1.26838 -26.00392,2.43951 -2.94643,0.2288 -16.76786,0.35225 -30.71428,0.27433 -46.85565,-0.2618 -63.83546,-0.18343 -81.42858,0.37581 -19.7079,0.62648 -73.06497,0.72853 -81.78571,0.15643 -9.70287,-0.63653 -17.0376,-1.31032 -24.64286,-2.26376 -1.375,-0.17239 -3.625,-0.45075 -5,-0.6186 -1.375,-0.16785 -4.0801,-0.63253 -6.01134,-1.03262 -1.93124,-0.40008 -3.661,-0.57777 -3.84392,-0.39485 -0.18291,0.18291 -0.93317,0.0111 -1.66723,-0.38172 -0.85642,-0.45838 -1.33465,-0.46448 -1.33465,-0.017 0,0.93227 1.24959,1.65175 3.50317,2.01703 1.01969,0.16528 2.65754,0.44645 3.63969,0.62483 2.99548,0.54404 5.91642,0.98194 9.28571,1.39209 1.76786,0.21521 4.5,0.54995 6.07143,0.74385 3.15887,0.3898 8.29742,0.89751 15.35714,1.51735 2.55357,0.2242 17.81465,0.52115 33.91349,0.65987 18.67213,0.16091 30.13208,0.53655 31.64976,1.03743 1.30851,0.43184 2.76172,0.86744 3.22936,0.96798 0.46764,0.10055 2.05245,0.71514 3.52181,1.36577 6.08925,2.69631 11.1233,3.29217 26.36764,3.12101 8.11442,-0.0911 14.38228,0.0805 13.92857,0.38124 -0.4537,0.30078 2.38937,0.55082 6.31794,0.55563 8.2658,0.0101 10.65757,0.24742 13.4528,1.33465 1.11333,0.43304 2.31868,0.60536 2.67858,0.38294 0.35988,-0.22243 0.65434,-0.0297 0.65434,0.42845 0,0.45807 0.44298,0.66288 0.98438,0.45511 0.54142,-0.20776 1.27151,-0.0906 1.62243,0.26029 0.35091,0.35091 1.27401,0.73688 2.05132,0.8577 0.77731,0.12082 1.83647,0.48363 2.35368,0.80625 0.5172,0.32262 1.12197,0.40498 1.34391,0.18304 0.22195,-0.22194 0.96919,-0.10081 1.66054,0.26919 1.14587,0.61325 2.31292,0.8577 8.91231,1.86675 1.17857,0.18021 4.06571,0.49588 6.41587,0.7015 2.35017,0.20561 4.43945,0.54811 4.64286,0.76111 0.35824,0.37513 11.70781,-0.0994 17.5127,-0.73217 z M 513.68776,711.48711 c 5.32173,-0.63903 7.83763,-1.257 12.15656,-2.98599 2.54604,-1.01925 4.62915,-2.14042 4.62915,-2.4915 0,-0.35108 0.24107,-0.56467 0.53572,-0.47464 0.77563,0.237 6.60714,-3.17573 6.60714,-3.86665 0,-0.32051 0.48214,-0.58276 1.07143,-0.58276 0.58928,0 1.07143,-0.24296 1.07143,-0.53992 0,-0.29695 0.99216,-0.97909 2.2048,-1.51586 2.63414,-1.16598 15.65234,-13.93222 15.65234,-15.34939 0,-0.54523 0.43012,-1.3483 0.95582,-1.7846 0.52571,-0.43629 1.38501,-2.16315 1.90956,-3.83746 0.52455,-1.67431 1.1067,-3.52634 1.29368,-4.11562 0.92262,-2.90788 0.1665,-10.73068 -1.19585,-12.37221 -0.44438,-0.53544 -0.59646,-1.18502 -0.33797,-1.44352 0.2585,-0.25849 0.12984,-0.46999 -0.28591,-0.46999 -0.41574,0 -0.95757,-0.80357 -1.20407,-1.78571 -0.24651,-0.98215 -0.7635,-1.78572 -1.14887,-1.78572 -0.38537,0 -0.70068,-0.45357 -0.70068,-1.00793 0,-0.55436 -0.96428,-1.81932 -2.14285,-2.81103 -1.17858,-0.9917 -2.14172,-2.06492 -2.14032,-2.38492 0.001,-0.32001 -1.07793,-1.70683 -2.39852,-3.08183 -1.32059,-1.375 -4.29494,-4.55691 -6.60969,-7.07091 -2.31474,-2.514 -6.45262,-6.85328 -9.19529,-9.64286 -2.74267,-2.78957 -4.99267,-5.25786 -5,-5.48508 -0.0119,-0.36979 -12.50733,-13.99862 -20.07751,-21.89869 l -2.92133,-3.04864 -5.11439,3.59169 c -2.81291,1.97543 -5.11438,3.90475 -5.11438,4.28738 0,0.38262 -0.40193,0.69568 -0.89317,0.69568 -0.49125,0 -2.29973,1.28571 -4.01885,2.85714 -1.71912,1.57143 -3.3779,2.85715 -3.68619,2.85715 -0.30829,0 -1.37191,0.96428 -2.36361,2.14285 -0.9917,1.17857 -2.11353,2.14286 -2.49294,2.14286 -1.81588,0 -16.69586,17.6274 -18.23943,21.60714 -0.41903,1.08036 -1.0318,1.96429 -1.36171,1.96429 -0.32991,0 -0.40119,0.32143 -0.15839,0.71428 0.2428,0.39286 0.14005,0.71429 -0.22833,0.71429 -0.55185,0 -2.52663,3.73183 -2.64585,5 -0.0185,0.19643 -0.43529,1.08036 -0.92626,1.96429 -0.49097,0.88392 -0.68129,1.60714 -0.42294,1.60714 0.25835,0 0.0696,0.48214 -0.41948,1.07143 -0.48906,0.58928 -0.64977,1.07143 -0.35714,1.07143 0.29264,0 0.13192,0.48214 -0.35714,1.07142 -0.48907,0.58929 -0.64978,1.07143 -0.35714,1.07143 0.29263,0 0.16,0.44831 -0.29475,0.99625 -0.45474,0.54793 -0.75875,1.27115 -0.67556,1.60714 0.0832,0.33599 -0.26794,2.05733 -0.78028,3.82518 -0.90821,3.13386 -1.36433,17.14778 -0.62769,19.28572 0.20304,0.58929 0.62575,2.03571 0.93936,3.21429 1.17088,4.40024 3.49359,7.8167 9.17204,13.49106 6.13722,6.13279 10.49922,9.74446 12.05328,9.97994 0.51033,0.0773 1.27001,0.35473 1.68817,0.61645 0.41817,0.26172 2.34674,0.54597 4.28572,0.63166 1.93898,0.0857 4.1888,0.39431 4.99959,0.68583 0.8108,0.29151 4.01371,0.73685 7.11759,0.98965 3.10388,0.25279 5.8155,0.64042 6.02583,0.8614 0.33557,0.35255 6.03617,-0.004 12.52527,-0.78303 z"
       id="path3574"
       inkscape:connector-curvature="0" />
    <path
       style="fill:#00222b"
       d="m 638.0288,780.71262 c -0.61972,-0.9458 -1.12676,-1.98945 -1.12676,-2.31922 0,-0.32976 -1.00921,-2.18928 -2.2427,-4.13227 -1.23348,-1.94298 -3.65679,-6.26484 -5.38514,-9.60413 -2.77384,-5.35926 -3.7024,-6.46817 -7.91631,-9.4538 l -4.77388,-3.38238 -0.10855,-9.11762 c -0.0597,-5.01469 -0.30737,-10.88548 -0.55038,-13.0462 -0.57555,-5.11768 -0.91272,-10.27952 -1.4697,-22.5 -0.76887,-16.86944 -0.90654,-16.10481 3.74752,-20.81393 2.19043,-2.21635 4.38689,-3.14031 4.43264,-1.86464 0.0106,0.29464 1.2812,1.31402 2.82364,2.26528 1.54243,0.95126 2.65583,1.96999 2.47422,2.26384 -0.18161,0.29386 0.10037,0.96485 0.62662,1.4911 0.52625,0.52625 0.82385,1.35574 0.66133,1.8433 -0.16253,0.48757 0.0717,0.88648 0.52047,0.88648 0.44878,0 0.62189,0.31401 0.38469,0.69781 -0.39489,0.63895 0.52832,5.2957 1.56096,7.87362 0.23606,0.58929 0.54801,1.68906 0.69324,2.44394 0.14523,0.75488 0.61844,1.79952 1.05158,2.32143 0.43314,0.5219 0.57615,0.94892 0.3178,0.94892 -0.25836,0 -0.0687,0.72321 0.42143,1.60714 0.49014,0.88393 0.82288,1.84821 0.73942,2.14286 -0.0835,0.29464 0.18864,0.53571 0.60469,0.53571 0.41604,0 0.55778,0.32143 0.31498,0.71429 -0.2428,0.39285 -0.0821,0.71428 0.35715,0.71428 0.43922,0 0.59994,0.32143 0.35714,0.71429 -0.2428,0.39285 -0.10105,0.71428 0.31499,0.71428 0.41604,0 0.75644,0.45919 0.75644,1.02041 0,0.56123 0.40178,1.44515 0.89286,1.96429 0.49107,0.51913 1.34895,1.8278 1.90641,2.90816 0.55746,1.08036 1.28067,1.96429 1.60714,1.96429 0.32647,0 0.59359,0.375 0.59359,0.83333 0,1.5704 13.96143,15.59524 15.52473,15.59524 0.49711,0 0.90384,0.33151 0.90384,0.7367 0,0.40519 0.51721,0.93517 1.14935,1.17775 0.63214,0.24258 1.96479,1.19677 2.96145,2.12044 0.99665,0.92367 2.2473,1.67939 2.77922,1.67939 0.53192,0 0.96712,0.25352 0.96712,0.56337 0,0.62419 7.27952,5.20173 7.87391,4.95131 0.20565,-0.0866 1.13826,0.55456 2.07246,1.42491 0.9342,0.87034 1.9713,1.41387 2.30466,1.20784 0.33337,-0.20603 0.60612,-0.0937 0.60612,0.24955 0,0.61132 4.02534,2.80342 5.27728,2.87387 0.34893,0.0196 0.83107,0.32067 1.07143,0.66895 0.67834,0.98295 8.6499,5.28377 8.66222,4.67345 0.006,-0.298 0.24709,-0.19272 0.53572,0.23395 0.76367,1.12894 10.16563,6.24227 10.17857,5.53571 0.006,-0.32846 0.24708,-0.2307 0.53571,0.21723 0.28863,0.44793 2.51889,1.98143 4.95613,3.40777 2.43724,1.42634 4.61824,2.89574 4.84666,3.26533 0.54568,0.88293 -4.30259,3.32792 -7.88266,3.97523 -1.55316,0.28083 -3.08886,0.6628 -3.41267,0.84885 -0.78207,0.44933 -4.55218,0.6114 -26.55411,1.1415 -20.78529,0.5008 -29.40992,1.01268 -36.55181,2.16943 -1.83347,0.29695 -2.48122,0.0387 -3.39286,-1.35263 z"
       id="path3576"
       inkscape:connector-curvature="0" />
    <path
       style="fill:#00222b"
       d="m 480.2611,707.91249 c -4.68041,-1.66954 -8.34054,-4.6072 -11.14344,-8.94384 -11.46238,-17.73452 -3.54301,-45.59937 13.69226,-48.17717 6.83271,-1.02193 15.15183,3.95353 19.274,11.52732 5.47584,10.06092 5.47584,24.61548 0,34.6764 -2.64069,4.85183 -8.03957,9.53736 -12.52377,10.86902 -4.3802,1.30078 -5.76755,1.30798 -9.29905,0.0483 z"
       id="path3578"
       inkscape:connector-curvature="0" />
    <path
       style="fill:#93a7ac"
       d="m 150.97538,675.09758 c -9.10343,-3.38903 -14.27903,-10.57578 -14.23435,-19.76559 0.0391,-8.0316 4.8106,-15.37662 12.19732,-18.77575 4.69181,-2.15902 14.09272,-2.15902 18.78453,0 10.6033,4.8793 15.30674,17.47316 10.327,27.65139 -2.10675,4.30604 -5.28397,7.46287 -9.9177,9.85403 -3.83401,1.97848 -13.11902,2.53911 -17.1568,1.03592 z"
       id="path3580"
       inkscape:connector-curvature="0" />
    <path
       style="fill:#93a7ac"
       d="m 634.77684,773.82702 c -8.34795,-14.94767 -9.0336,-15.91665 -13.45891,-19.02084 l -4.19441,-2.94221 -0.46101,-11.6392 c -0.25356,-6.40156 -0.77628,-15.81777 -1.16161,-20.92491 -0.38533,-5.10714 -0.79021,-13.48911 -0.89973,-18.62659 -0.19838,-9.30578 -0.19147,-9.35092 1.83877,-12.01314 3.16599,-4.15151 4.78734,-4.58081 8.15585,-2.15947 2.78103,1.99904 5.1634,6.10371 5.1634,8.89621 0,2.5256 4.16616,14.19832 6.82391,19.1192 3.67162,6.79807 8.7303,13.36753 14.40908,18.71236 4.69899,4.42265 13.32266,11.42857 14.06757,11.42857 0.19266,0 2.1857,1.28572 4.42899,2.85715 2.24329,1.57142 4.4019,2.85714 4.7969,2.85714 0.39501,0 1.22565,0.45613 1.84587,1.01363 0.62022,0.5575 3.21696,2.15069 5.77053,3.54041 2.55357,1.38973 7.69643,4.19262 11.42857,6.22865 3.73215,2.03603 8.39286,4.55492 10.35715,5.59752 1.96428,1.0426 5.48431,3.12452 7.82229,4.6265 4.00881,2.57535 4.17221,2.78836 2.86955,3.74088 -3.28219,2.4 -8.60433,3.28149 -23.54899,3.90037 -22.12864,0.91639 -45.30717,2.1286 -48.62258,2.54292 l -2.9083,0.36344 -4.52289,-8.09859 z"
       id="path3582"
       inkscape:connector-curvature="0" />
    <path
       style="fill:#93a7ac"
       d="m 153.33061,836.03898 c -17.86943,-0.8786 -21.36191,-1.78256 -30.35896,-7.85783 -6.9119,-4.66728 -8.48852,-6.26434 -16.72625,-16.94315 -3.20893,-4.15982 -7.451314,-13.11702 -10.346734,-21.84568 -3.897039,-11.74818 -7.62227,-36.60332 -6.128327,-40.88885 0.539532,-1.5477 0.534596,-2.76818 -0.01706,-4.21915 -0.426903,-1.12284 -1.243659,-9.45369 -1.815014,-18.513 -0.571355,-9.0593 -1.681098,-25.06089 -2.466095,-35.55907 -1.501874,-20.08536 -1.863027,-36.98382 -0.790416,-36.98382 0.350268,0 0.819803,0.72321 1.04341,1.60714 0.766303,3.02922 6.095631,10.34904 10.243202,14.069 12.428177,11.14685 28.737787,16.00443 53.790827,16.02079 17.9843,0.0117 23.41925,-1.44361 29.9205,-8.01199 3.80572,-3.84502 7.37641,-10.33523 8.51143,-15.47065 1.32237,-5.98308 1.73555,-17.46329 0.89799,-24.95024 -1.7508,-15.65036 -9.91663,-30.88784 -21.6337,-40.36856 -2.40426,-1.94538 -8.57482,-5.66745 -13.71237,-8.27126 l -9.341,-4.73422 -6.78571,-0.12357 c -6.19307,-0.11279 -6.98947,0.0293 -9.11866,1.6264 -2.08658,1.56519 -16.83063,18.30235 -25.19535,28.6013 -1.75229,2.15749 -5.930748,7.13963 -9.285449,11.07142 -3.354702,3.9318 -6.810059,8.076 -7.678572,9.20934 l -1.579114,2.06061 0.0012,-4.20347 c 0.0022,-7.80403 3.254393,-48.7929 5.774113,-72.7749 2.690541,-25.60782 6.016315,-41.16725 10.857978,-50.79838 0.96421,-1.91803 1.99762,-4.2909 2.29647,-5.27305 0.29885,-0.98214 1.22351,-2.75 2.0548,-3.92857 0.83129,-1.17857 2.31591,-3.6284 3.29915,-5.44406 4.18748,-7.73267 11.54204,-17.78767 20.85504,-28.51258 7.85446,-9.04525 32.24989,-30.68621 34.59197,-30.68621 0.25714,0 3.39614,-1.41368 6.97554,-3.1415 7.92192,-3.82401 21.89589,-7.90606 32.33525,-9.44572 9.71645,-1.43303 28.90037,-1.60708 38.81562,-0.35215 12.41594,1.57144 36.02635,7.29571 43.21428,10.47718 1.17858,0.52165 3.91072,1.64252 6.07143,2.49082 2.16072,0.8483 5.93417,2.47627 8.38546,3.61772 5.14634,2.39642 20.31772,6.95281 30.60216,9.19069 18.44966,4.01462 40.77105,6.61785 82.7981,9.65629 38.09219,2.75396 49.10288,3.81062 60,5.75796 5.5,0.98287 10.96428,2.06695 12.14285,2.40907 10.13965,2.94335 15.53212,4.74251 18.58168,6.19966 1.96993,0.94127 3.98525,1.7114 4.47848,1.7114 0.49324,0 2.09577,0.75662 3.56118,1.68137 1.46541,0.92475 3.46795,1.93551 4.45009,2.24614 0.98215,0.31064 3.38857,1.64331 5.34761,2.9615 1.95904,1.31819 3.83122,2.39671 4.16039,2.39671 1.56968,0 12.5547,9.13729 21.43573,17.83013 12.37912,12.11682 17.86479,20.16742 23.97556,35.18578 11.02313,27.09142 13.44791,69.83168 6.79893,119.84123 -1.30784,9.83684 -3.67223,23.40229 -4.23863,24.31875 -0.22351,0.36164 -0.85627,2.6718 -1.40614,5.13367 -0.83742,3.7493 -7.7067,24.59245 -9.15687,27.78425 -0.24429,0.53769 -1.68438,4.03119 -3.20018,7.76333 -1.902,4.683 -3.07082,6.70395 -3.77192,6.52185 -3.33858,-0.86713 -4.81887,0.77225 -1.89869,2.10277 l 1.72942,0.78798 -2.16626,6.18656 c -2.71683,7.75889 -3.02134,15.53236 -0.83917,21.42201 1.83959,4.96504 7.84224,12.17673 13.74007,16.50754 6.3271,4.64604 11.33928,6.10551 20.91872,6.09122 9.09286,-0.0136 12.06921,-1.21266 18.58012,-7.48544 4.36267,-4.20312 7.25343,-9.30779 8.23552,-14.54275 0.27406,-1.46089 0.90734,-2.59174 1.45139,-2.59174 0.53085,0 2.66109,1.38248 4.73388,3.07217 3.16198,2.57758 4.66088,4.7337 9.31046,13.39286 3.04796,5.67638 5.54266,10.66854 5.54376,11.0937 0.001,0.42516 -1.04263,1.1197 -2.31941,1.54342 -10.01344,3.32316 -17.02221,7.509 -34.88218,20.83265 -14.99886,11.18925 -20.48965,14.42586 -29.88119,17.61383 -15.48951,5.25794 -22.6574,6.0213 -57.20092,6.09171 -38.34493,0.0782 -67.2758,0.99581 -76.07143,2.4129 -3.92857,0.63294 -9.55357,1.44306 -12.5,1.80026 -2.94642,0.3572 -10.5,1.35309 -16.78571,2.2131 -8.93217,1.2221 -14.08099,1.51557 -23.57143,1.34357 -21.32391,-0.38647 -55.85487,-0.35087 -137.14286,0.1414 -45.24281,0.27398 -84.95952,0.20116 -92.5,-0.16959 z m 216.30248,-11.02933 c 17.25685,-1.40662 25.86203,-4.2382 34.76895,-11.44093 4.57592,-3.7004 10.36842,-6.62795 15.36154,-7.7638 12.5334,-2.85112 45.54824,-4.186 82.49561,-3.33552 15.34043,0.35312 19.75547,-0.26705 26.2214,-3.68325 4.0593,-2.14468 12.70717,-9.37053 12.70717,-10.61765 0,-1.26063 -1.29632,-0.62825 -5.09652,2.48627 -5.5099,4.51572 -12.59178,8.17778 -18.00478,9.31033 -3.8561,0.8068 -8.11778,0.84672 -23.83295,0.22325 -14.20174,-0.56344 -23.74251,-0.5394 -36.99432,0.0932 -22.15034,1.05738 -48.91572,3.43218 -61.78572,5.48206 -1.375,0.219 -30.14286,0.67294 -63.92857,1.00875 -33.78571,0.33581 -77.01786,0.84485 -96.07143,1.13121 -42.0125,0.63139 -61.86526,-0.34954 -85.53571,-4.22636 -5.62103,-0.92063 -7.37784,-0.57948 -4.61909,0.89696 1.57419,0.84248 17.70723,3.29411 28.66439,4.35594 4.48385,0.43451 22.64457,1.062 40.35715,1.3944 30.37116,0.56996 32.44869,0.6923 36.4904,2.14875 2.35715,0.84942 5.73215,2.04262 7.5,2.65158 2.42508,0.83534 8.35541,1.25339 24.15295,1.70258 26.37098,0.74985 29.08956,1.06457 39.77563,4.60469 6.70722,2.222 20.85319,4.42615 29.28571,4.56315 2.75,0.0446 10.88969,-0.39885 18.08819,-0.9856 z M 512.63506,711.77562 c 7.6766,-0.93665 11.84586,-2.26788 18.5517,-5.92347 20.62925,-11.24575 32.52908,-25.95368 31.0059,-38.32268 -0.9607,-7.80138 -4.51009,-13.05991 -19.51142,-28.90668 -4.48215,-4.73475 -11.76863,-12.6265 -16.19217,-17.53722 -4.42353,-4.91071 -10.75606,-11.82143 -14.07228,-15.35714 l -6.02948,-6.42857 -8.44941,6.42857 c -23.21541,17.663 -34.14966,30.83091 -40.14749,48.34888 -2.95241,8.62316 -4.27315,19.87934 -3.10841,26.4917 1.3247,7.52044 3.71291,11.49394 11.52616,19.17716 3.93278,3.86733 8.14429,7.54541 9.35893,8.17353 1.21463,0.62811 6.1101,1.74037 10.87883,2.47169 14.95819,2.29394 17.59237,2.43317 26.18914,1.38423 z"
       id="path3584"
       inkscape:connector-curvature="0" />
    <path
       style="fill:#93a7ac"
       d="m 147.97347,835.87361 c -9.79779,-1.30107 -15.73923,-2.66819 -19.194,-4.41654 -15.85219,-8.02227 -28.40769,-25.2669 -34.074264,-46.80007 -3.492097,-13.27007 -6.290149,-34.98166 -4.81458,-37.35893 0.26872,-0.43292 0.289545,-1.1092 0.04628,-1.50282 -0.455073,-0.73632 -0.515253,-1.4159 -0.752864,-8.50183 -0.07653,-2.28212 -0.389672,-3.99446 -0.69588,-3.80521 -0.306209,0.18924 -0.557921,-1.80071 -0.55936,-4.42214 -0.0014,-2.62141 -0.243126,-7.65907 -0.537078,-11.19478 -1.063688,-12.79424 -1.242482,-15.78347 -1.186005,-19.82864 0.03159,-2.26289 -0.170029,-4.4824 -0.44805,-4.93225 -0.278021,-0.44985 -0.434135,-3.01803 -0.34692,-5.70708 0.08722,-2.68905 -0.104065,-4.89187 -0.425066,-4.89515 -0.763671,-0.008 -1.204715,-27.6058 -0.448497,-28.06435 0.318529,-0.19313 0.993602,0.0973 1.500163,0.6453 0.50656,0.54805 0.739377,0.99645 0.517371,0.99645 -0.222006,0 0.095,0.96429 0.704467,2.14286 0.609463,1.17857 1.47486,2.14286 1.923105,2.14286 0.448244,0 0.608826,0.20616 0.356848,0.45814 -0.772356,0.77236 5.32656,7.47892 9.860923,10.84339 7.381599,5.47711 17.588079,9.7572 26.909449,11.28448 6.88408,1.12794 10.00481,1.3033 23.44968,1.31764 20.57538,0.0219 23.04189,-0.60903 29.69657,-7.59697 4.16895,-4.37773 5.67521,-6.63673 7.21543,-10.8213 1.10694,-3.0074 1.30742,-3.90264 2.1881,-9.7711 0.98269,-6.54809 0.52426,-19.81368 -0.88861,-25.71428 -0.23517,-0.98215 -0.57659,-2.50054 -0.7587,-3.3742 -0.18211,-0.87367 -0.67037,-2.48082 -1.08502,-3.57143 -0.41465,-1.09062 -0.68762,-1.98294 -0.6066,-1.98294 0.081,0 -0.53925,-1.28096 -1.37837,-2.84657 -0.83911,-1.56561 -1.52566,-3.12953 -1.52566,-3.47537 0,-1.55861 -7.14507,-11.25779 -11.39166,-15.46378 -4.54219,-4.49876 -6.73438,-5.92496 -19.90653,-12.95083 -6.14988,-3.28028 -6.26335,-3.30888 -13.55138,-3.41561 l -7.34956,-0.10764 -5.9116,5.91561 c -5.08529,5.08874 -8.63308,9.04986 -16.68151,18.62494 -5.63248,6.70085 -20.63329,24.76392 -21.897447,26.36757 -1.794108,2.27592 -2.983097,2.62386 -1.872033,0.54782 0.425843,-0.79569 0.838937,-5.61498 0.917989,-10.70953 0.07905,-5.09454 0.412227,-9.26495 0.740391,-9.26756 0.328164,-0.003 0.488879,-2.09473 0.357143,-4.64913 -0.131736,-2.55439 0.02898,-4.64367 0.357143,-4.64285 0.328164,7.1e-4 0.488878,-2.08846 0.357143,-4.64286 -0.131736,-2.55439 0.0301,-4.64368 0.359638,-4.64286 0.329537,7.2e-4 0.490251,-1.92765 0.357143,-4.28551 -0.133108,-2.35786 -9.43e-4,-4.28643 0.293699,-4.28572 0.294643,7.2e-4 0.535715,-1.24292 0.535715,-2.76365 0,-5.33275 3.599725,-37.69956 5.37248,-48.30647 0.984884,-5.89286 2.568211,-13.52679 3.518503,-16.96429 0.950293,-3.4375 1.508221,-6.25492 1.239839,-6.26094 -0.268381,-0.006 -0.129712,-0.24708 0.308153,-0.53571 0.437865,-0.28863 1.923611,-3.09621 3.301661,-6.23906 5.23526,-11.93981 15.88513,-27.97288 26.47432,-39.85631 6.67531,-7.49119 18.59683,-19.46737 19.18416,-19.27213 0.26022,0.0865 1.62687,-1.11978 3.037,-2.68063 1.41014,-1.56085 2.56388,-2.66455 2.56388,-2.45267 0,0.21189 1.97336,-1.257 4.38525,-3.26419 7.34398,-6.11173 24.43895,-13.05289 40.61475,-16.49102 6.5892,-1.40052 9.71197,-1.60038 25.71429,-1.64572 16.28926,-0.0462 19.08244,0.12229 26.42857,1.59384 20.89301,4.18523 33.17369,7.82004 45.71429,13.5304 4.86463,2.21512 15.71428,5.94737 15.71428,5.40567 0,-0.21962 0.4098,-0.0592 0.91066,0.35647 0.50086,0.41568 1.70622,0.88776 2.67857,1.04907 0.97236,0.16131 2.25006,0.49413 2.83934,0.7396 0.58929,0.24547 1.875,0.60196 2.85715,0.79219 0.98214,0.19023 3.52772,0.82767 5.65683,1.41652 2.12912,0.58886 4.11584,0.9194 4.41493,0.73455 0.29909,-0.18485 0.75521,0.006 1.01359,0.42403 0.25838,0.41806 1.0038,0.69533 1.6565,0.61616 0.6527,-0.0792 1.66886,0.0552 2.25815,0.29856 0.58928,0.24339 2.51785,0.63896 4.28571,0.87906 4.20438,0.57102 6.2462,0.87687 9.28572,1.39097 2.93121,0.49578 5.4519,0.843 10.35714,1.42667 1.96428,0.23373 4.69643,0.56912 6.07143,0.74532 1.375,0.17619 4.42857,0.49642 6.78571,0.71162 2.35714,0.2152 5.89286,0.55579 7.85714,0.75686 7.09241,0.72601 17.7621,1.58881 25.5418,2.06542 2.65513,0.16267 5.14297,0.49071 5.52851,0.72899 0.38555,0.23828 2.55245,0.41994 4.81534,0.40367 2.2629,-0.0163 9.41793,0.45649 15.90007,1.05056 6.48214,0.59407 12.66964,0.96751 13.75,0.82986 1.08036,-0.13764 1.96428,0.0453 1.96428,0.40642 0,0.36118 1.7683,0.54658 3.92955,0.41201 2.16125,-0.13458 3.9291,-0.0479 3.92857,0.19251 -5.4e-4,0.24046 2.4901,0.66199 5.53474,0.93675 6.89513,0.62224 23.62212,3.6755 28.39286,5.1827 12.36508,3.90645 19.90006,7.00311 29.44809,12.10232 4.01788,2.14578 7.39288,3.81376 7.5,3.70661 0.20244,-0.20248 0.56922,0.1034 10.53651,8.78696 11.23518,9.78815 18.73033,17.81223 26.27871,28.13318 0.28732,0.39286 1.93612,3.60715 3.66401,7.14286 7.70208,15.76053 11.76515,31.93845 13.71814,54.62141 1.07121,12.44166 0.4264,46.19827 -1.14653,60.02145 -0.6482,5.69643 -1.23455,12.04203 -1.30302,14.10134 -0.0685,2.05931 -0.40072,3.74681 -0.73835,3.75 -0.33762,0.003 -0.48311,1.12573 -0.32331,2.49452 0.1598,1.3688 0.1,2.57416 -0.13299,2.67857 -0.23293,0.10442 -0.98054,3.37177 -1.66134,7.26079 -0.68079,3.88901 -1.69226,8.54973 -2.2477,10.35714 -0.55544,1.80742 -2.47524,8.10764 -4.26623,14.0005 -1.79098,5.89285 -4.03737,12.62902 -4.99196,14.96925 -0.9546,2.34023 -1.57808,4.50987 -1.38553,4.82142 0.19256,0.31156 0.01,0.56647 -0.40634,0.56647 -0.41605,0 -0.75645,0.30699 -0.75645,0.68221 0,0.37522 -1.00488,2.78593 -2.23308,5.35715 -1.98447,4.15445 -2.46162,4.67492 -4.28572,4.67492 -2.34613,0 -2.77613,1.37312 -0.60758,1.9402 1.13668,0.29725 1.41038,0.89268 1.28258,2.79028 -0.0893,1.32681 -0.38335,2.41238 -0.65333,2.41238 -0.26997,0 -0.71756,0.88393 -0.99464,1.96429 -0.51594,2.01168 -0.58503,2.34827 -1.69345,8.25084 -1.97466,10.51542 2.29742,19.29073 14.05252,28.86539 3.68736,3.0034 6.69816,4.66682 10.4508,5.77394 0.80719,0.23814 5.8069,0.44866 11.11047,0.46783 9.23136,0.0334 9.76479,-0.0451 12.5,-1.83787 6.43074,-4.21507 13.42228,-13.38815 14.08846,-18.48442 0.41554,-3.17886 1.17799,-3.79515 3.12054,-2.52234 0.94577,0.61968 1.71958,0.94785 1.71958,0.72925 0,-1.19562 6.70626,7.42116 9.00672,11.57262 1.48221,2.67483 3.03528,5.09948 3.45125,5.38811 0.41597,0.28863 0.51061,0.5297 0.21031,0.53571 -0.30029,0.006 0.43317,1.95064 1.62992,4.32138 l 2.1759,4.31044 -3.05848,1.38816 c -1.68217,0.76349 -3.46027,1.39521 -3.95134,1.40384 -0.49107,0.009 -0.89286,0.35609 -0.89286,0.77213 0,0.41604 -0.27267,0.58792 -0.60595,0.38194 -0.59747,-0.36925 -12.4434,6.09659 -14.94658,8.15826 -0.70819,0.58328 -3.12357,2.305 -5.36754,3.82606 -2.24395,1.52106 -4.07993,3.10141 -4.07993,3.5119 0,0.41049 -0.18793,0.55842 -0.41762,0.32872 -0.2297,-0.22969 -3.87412,2.06909 -8.09871,5.10841 -4.22459,3.03931 -8.85809,6.25346 -10.29665,7.14255 -1.43857,0.88908 -2.61559,1.9653 -2.61559,2.3916 0,0.42629 -0.18305,0.59202 -0.40678,0.36829 -0.22372,-0.22373 -2.74682,0.67439 -5.60686,1.99581 -6.69342,3.09255 -16.21865,5.89584 -24.3435,7.16433 -4.52725,0.70682 -18.99844,1.2037 -48.92857,1.67998 -39.2776,0.62504 -52.20154,1.04422 -59.64286,1.93447 -1.57143,0.188 -3.59729,0.32363 -4.50192,0.30141 -0.90463,-0.0222 -4.76177,0.45793 -8.57143,1.06699 -3.80966,0.60907 -9.65879,1.41068 -12.99808,1.78138 -3.33928,0.37069 -6.55357,0.86552 -7.14285,1.09962 -3.56563,1.41645 -34.37443,1.82686 -146.42858,1.9506 -61.08928,0.0675 -113,-0.13343 -115.35714,-0.44644 z m 217.04409,-10.46456 c 3.1768,0.01 14.55774,-1.46645 19.02734,-2.46806 5.84195,-1.30914 8.57143,-2.20834 8.57143,-2.82379 0,-0.38406 0.19986,-0.49843 0.44413,-0.25415 0.5929,0.5929 7.41301,-2.89353 7.41301,-3.78951 0,-0.38624 0.31831,-0.70225 0.70734,-0.70225 0.38905,0 2.7194,-1.37564 5.17858,-3.05697 2.45917,-1.68134 5.51587,-3.48819 6.79265,-4.01523 1.27679,-0.52704 2.32143,-1.25966 2.32143,-1.62804 0,-0.36838 0.32143,-0.47113 0.71429,-0.22833 0.39285,0.2428 1.08367,0.21315 1.53514,-0.0659 0.45147,-0.27902 2.12322,-0.62463 3.71499,-0.76801 1.59178,-0.14338 3.07061,-0.49655 3.28629,-0.78483 0.21568,-0.28829 1.83858,-0.54013 3.60643,-0.55967 1.76786,-0.0195 9.96429,-0.43282 18.21429,-0.91842 8.25,-0.4856 27.85714,-0.97093 43.57143,-1.07851 29.17562,-0.19974 31.20069,-0.32133 35.53863,-2.13385 4.85902,-2.03022 16.36226,-11.31376 15.3157,-12.36032 -0.4952,-0.49521 -6.92576,4.01915 -6.92576,4.86199 0,0.32626 -0.40179,0.51284 -0.89286,0.41463 -0.49107,-0.0982 -0.79935,0.26265 -0.68508,0.80191 0.13089,0.61762 -0.19255,0.82687 -0.87396,0.56538 -0.61376,-0.23551 -1.38954,0.11284 -1.7932,0.80523 -0.39131,0.67118 -0.72124,0.97273 -0.73318,0.67011 -0.0119,-0.30263 -1.23675,0.0696 -2.72179,0.82723 -5.99771,3.05981 -10.13116,3.71654 -22.40294,3.55945 -26.24607,-0.33596 -51.89882,0.14034 -64.53985,1.19833 -2.35714,0.19728 -4.76785,0.3752 -5.35714,0.39537 -4.93393,0.16892 -28.16619,2.32421 -33.57143,3.11447 -4.96711,0.72622 -19.89881,1.12074 -55.71428,1.47208 -26.91072,0.26399 -49.89286,0.61397 -51.07143,0.77772 -1.17857,0.16375 -17.25,0.32963 -35.71429,0.36862 -18.46428,0.039 -32.60714,0.30161 -31.42857,0.58362 4.92074,1.17746 -43.01336,-0.6394 -57.5,-2.17943 -4.51786,-0.48028 -9.57934,-0.90081 -11.24772,-0.93452 -1.66839,-0.0337 -3.03447,-0.31243 -3.03572,-0.61938 -0.001,-0.30694 -1.04692,-0.54984 -2.3237,-0.53975 -1.27679,0.0101 -3.76786,-0.17348 -5.53572,-0.40793 -2.22089,-0.29452 -2.99353,-0.19611 -2.5,0.31845 0.69372,0.72328 3.1313,1.41799 6.78572,1.93393 0.98214,0.13866 2.91071,0.44816 4.28571,0.68776 1.375,0.2396 3.625,0.5822 5,0.76132 1.375,0.17913 3.94643,0.52508 5.71429,0.7688 4.62553,0.63768 9.12524,0.93989 19.64285,1.31928 5.10715,0.18423 19.47949,0.70005 31.93855,1.14628 12.45905,0.44622 24.1912,0.5991 26.07143,0.33973 2.43495,-0.33588 3.11031,-0.26071 2.34717,0.26124 -0.8421,0.57597 -0.57456,0.7581 1.25,0.8509 3.8452,0.19559 4.09145,0.2398 4.515,0.81051 0.22433,0.30226 2.49878,1.14752 5.05435,1.87834 5.2311,1.49596 12.67705,2.09161 32.39493,2.59148 7.46429,0.18923 16.625,0.83862 20.35715,1.44307 3.73214,0.60446 7.42857,1.16554 8.21428,1.24685 0.78572,0.0813 1.61844,0.40538 1.85049,0.72014 0.23205,0.31477 1.19634,0.67321 2.14285,0.79654 0.94653,0.12332 2.55427,0.5618 3.57278,0.9744 1.0185,0.41259 3.42922,0.9602 5.35714,1.2169 1.92792,0.2567 4.4696,0.64177 5.64817,0.8557 1.17857,0.21394 3.32969,0.44115 4.78026,0.50492 1.45057,0.0638 2.85433,0.33288 3.11947,0.59801 0.26514,0.26514 4.38188,0.34382 9.14831,0.17486 4.76644,-0.16897 9.90752,-0.3034 11.42462,-0.29873 l 0,-10e-6 z M 512.97347,711.60408 c 1.17857,-0.19354 3.55513,-0.55968 5.28124,-0.81364 1.72612,-0.25397 3.49398,-0.68832 3.92858,-0.96523 0.4346,-0.27691 0.9509,-0.53533 1.14732,-0.57426 3.30115,-0.65434 16.42858,-7.81643 16.42858,-8.96315 0,-0.34693 0.40178,-0.6318 0.89285,-0.63302 1.45728,-0.004 11.35747,-8.67793 14.28512,-12.51628 6.1345,-8.04273 8.29755,-15.14121 6.75641,-22.17248 -1.03793,-4.73547 -7.02428,-14.07279 -11.59558,-18.08644 -1.36491,-1.19841 -2.48166,-2.47793 -2.48166,-2.84337 0,-0.36544 -1.76786,-2.28016 -3.92857,-4.25493 -2.16072,-1.97476 -3.9287,-3.85524 -3.92884,-4.17881 -1.4e-4,-0.32358 -4.60665,-5.3815 -10.23667,-11.23981 -5.63002,-5.85832 -10.21026,-10.77491 -10.17831,-10.92575 0.0918,-0.43338 -12.6218,-13.77991 -13.12643,-13.77991 -0.5567,0 -10.54485,7.61164 -15.31094,11.66794 -17.83163,15.1761 -23.69537,22.13596 -30.03819,35.65332 -2.92952,6.24316 -4.95742,11.96446 -4.24077,11.96446 0.17858,0 -0.001,0.60943 -0.4001,1.3543 -0.68918,1.28773 -1.08487,3.69922 -1.95486,11.91362 -0.41707,3.93798 1.23122,13.33767 2.90714,16.57855 1.38354,2.67546 9.16344,11.26453 14.15545,15.62772 3.3321,2.91237 4.97425,3.77939 8.9972,4.75039 6.31918,1.52522 15.6744,2.82869 16.52572,2.30254 0.3627,-0.22417 0.84719,-0.10381 1.07664,0.26745 0.40733,0.65907 10.77334,0.56726 15.03867,-0.13321 z"
       id="path3586"
       inkscape:connector-curvature="0" />
    <path
       style="fill:#1c2224"
       d="m 477.78839,706.39468 c -10.4341,-5.19953 -16.0518,-20.78617 -12.6666,-35.14422 2.09957,-8.90515 6.4839,-15.25017 12.6666,-18.33114 7.09072,-3.53345 14.55095,-1.60098 20.84512,5.39965 9.6323,10.71344 9.55849,32.04472 -0.14824,42.84094 -6.19294,6.88804 -13.61307,8.76478 -20.69688,5.23477 z"
       id="path3588"
       inkscape:connector-curvature="0" />
    <path
       style="fill:#1c2224"
       d="m 149.30418,674.03945 c -10.73453,-5.02466 -15.13108,-17.02649 -10.03717,-27.39977 3.68358,-7.50129 10.05667,-11.26839 19.0636,-11.26839 8.79407,0 14.88705,3.47716 18.95122,10.81514 1.82173,3.2892 2.12001,4.5814 2.1201,9.18486 1.7e-4,7.944 -3.27629,13.56274 -10.335,17.72333 -2.73523,1.61222 -4.1669,1.91356 -10,2.10481 -5.56279,0.18239 -7.34814,-0.0297 -9.76275,-1.15998 z"
       id="path3590"
       inkscape:connector-curvature="0" />
    <path
       style="fill:#1c2224"
       d="m 148.33061,673.15463 c -3.67324,-2.19959 -7.06249,-5.61257 -8.7932,-8.85477 -2.24966,-4.21435 -2.19625,-13.06831 0.10555,-17.5 3.88584,-7.48146 9.61985,-10.8249 18.63225,-10.86426 6.76809,-0.0295 11.76304,1.91875 15.48706,6.04079 4.13865,4.58099 5.51399,8.44755 5.12467,14.40721 -0.39654,6.07017 -2.12955,9.80437 -6.29777,13.5701 -4.36436,3.94295 -6.75495,4.7037 -14.77133,4.70063 -5.81925,-0.002 -7.40512,-0.25291 -9.48723,-1.4997 z"
       id="path3592"
       inkscape:connector-curvature="0" />
    <path
       style="fill:#1c2224"
       d="m 148.33061,673.15463 c -11.71509,-7.01517 -14.30523,-21.06827 -5.68755,-30.85847 7.54393,-8.57035 23.51701,-8.73449 31.11921,-0.31977 4.13865,4.58099 5.51399,8.44755 5.12467,14.40721 -0.39654,6.07017 -2.12955,9.80437 -6.29777,13.5701 -4.36436,3.94295 -6.75495,4.7037 -14.77133,4.70063 -5.81925,-0.002 -7.40512,-0.25291 -9.48723,-1.4997 z"
       id="path3594"
       inkscape:connector-curvature="0" />
    <path
       style="fill:#1c2224"
       d="m 148.68776,673.47494 c -6.42274,-3.37154 -11.05258,-10.66948 -11.06445,-17.4407 -0.0211,-12.00441 8.34164,-20.13664 20.7073,-20.13664 9.22395,0 15.9173,4.19247 19.45247,12.18429 1.8454,4.17185 1.50344,11.9368 -0.71639,16.26669 -1.76006,3.43309 -6.49187,7.89766 -9.86345,9.3064 -3.41273,1.42593 -15.68343,1.30661 -18.51548,-0.18004 z"
       id="path3596"
       inkscape:connector-curvature="0" />
    <path
       style="fill:#afc6e9"
       d="m 143.33666,835.25474 c -10.04547,-1.45174 -14.78928,-3.1685 -21.1727,-7.6623 -11.58331,-8.15442 -21.132,-22.13769 -26.231128,-38.41333 -3.577425,-11.4186 -6.058215,-27.27145 -6.51581,-41.63761 -0.231018,-7.25282 -0.687077,-13.35996 -1.013464,-13.57143 -0.326387,-0.21147 -0.809854,-5.20592 -1.074373,-11.09878 -0.264518,-5.89286 -0.644169,-12.79749 -0.843668,-15.34364 -0.199498,-2.54615 -0.482846,-6.88543 -0.629661,-9.64285 -0.474549,-8.91283 -0.843904,-14.1947 -1.34957,-19.29923 -0.530284,-5.35303 -0.597175,-24.03088 -0.08789,-24.54016 0.577478,-0.57748 2.483643,1.50028 2.483643,2.70722 0,0.66354 0.5625,1.83078 1.25,2.59387 0.6875,0.76309 2.65516,3.23442 4.372579,5.49183 1.717418,2.25741 3.32456,4.10514 3.571428,4.10606 0.246867,7.2e-4 1.53544,0.93037 2.863495,2.06544 5.483866,4.68697 19.333316,10.67541 27.322966,11.81431 17.65968,2.51734 34.90702,2.41638 44.757,-0.26197 2.17815,-0.59227 4.37284,-2.11618 7.57858,-5.2623 7.96441,-7.81624 10.43012,-15.31916 10.4218,-31.71245 -0.006,-11.3057 -1.23868,-17.71246 -5.22844,-27.16853 -5.97173,-14.15351 -15.80908,-23.46873 -34.15161,-32.33897 -5.10173,-2.46714 -6.03792,-2.67763 -12.43967,-2.79697 l -6.92276,-0.12904 -6.04398,6.28726 c -6.26493,6.5171 -26.779718,30.46618 -27.276907,31.84322 -0.155464,0.43058 -1.200107,1.55485 -2.321429,2.49838 -1.121321,0.94353 -2.038766,2.16908 -2.038766,2.72344 0,0.55436 -0.302642,1.00793 -0.672538,1.00793 -0.369896,0 -2.156539,1.92858 -3.970319,4.28572 -1.81378,2.35714 -3.566574,4.28571 -3.895097,4.28571 -0.328524,0 -0.323828,-1.20535 0.01044,-2.67857 0.334262,-1.47321 0.628498,-4.60714 0.653857,-6.96428 0.02536,-2.35715 0.239474,-6.21429 0.475812,-8.57143 0.766738,-7.64715 1.763988,-20.59013 2.052915,-26.64409 0.0994,-2.08282 0.378392,-3.98461 0.619976,-4.22619 0.241585,-0.24159 0.439245,-1.94587 0.439245,-3.78731 0,-1.84143 0.662261,-9.41058 1.471692,-16.82034 0.80943,-7.40976 1.321665,-14.04599 1.1383,-14.74718 -0.183367,-0.70119 -0.0795,-1.27489 0.23081,-1.27489 0.31031,0 0.792578,-2.16965 1.071703,-4.82143 0.659418,-6.26469 2.708984,-17.44036 4.683132,-25.53572 3.496459,-14.33788 15.316509,-34.59847 30.628559,-52.5 6.32058,-7.38947 20.20562,-21.42382 20.82014,-21.04402 0.30833,0.19056 1.74062,-1.09359 3.18286,-2.85365 1.44224,-1.76007 2.83292,-3.13375 3.09039,-3.05262 0.25747,0.0811 2.25542,-1.20735 4.43989,-2.86328 7.12866,-5.40385 22.99112,-11.70258 38.52824,-15.29894 6.09281,-1.4103 8.82794,-1.57592 26.78571,-1.62194 21.6199,-0.0554 21.79862,-0.034 41.99837,5.02418 3.8491,0.96385 7.30445,1.56328 7.67857,1.33207 0.37411,-0.23122 0.68021,-0.14666 0.68021,0.1879 0,0.33457 1.49502,1.00815 3.32226,1.49687 1.82725,0.48871 6.88975,2.35896 11.25,4.1561 8.00114,3.29778 24.57371,9.30314 27.21345,9.86127 0.78571,0.16612 3.35714,0.8249 5.71429,1.46395 3.73057,1.0114 8.16571,2.06129 11.78571,2.78992 0.58929,0.11861 1.875,0.41377 2.85714,0.65591 2.01968,0.49794 5.44094,1.05663 9.64286,1.57467 1.57143,0.19373 3.5,0.49191 4.28571,0.66262 0.78572,0.1707 3.03572,0.50463 5,0.74207 1.96429,0.23743 5.98215,0.72912 8.92858,1.09264 2.94642,0.36352 11.14285,1.16223 18.21428,1.7749 7.07143,0.61268 14.625,1.28316 16.78572,1.48995 9.85464,0.94316 12.78321,1.1874 16.78571,1.3999 4.346,0.23075 18.73208,1.37272 27.85714,2.21131 2.75,0.25273 6.60715,0.56886 8.57143,0.70252 5.29448,0.36026 17.46855,2.17204 26.78572,3.98633 4.51785,0.87974 8.53571,1.60624 8.92857,1.61445 0.39285,0.008 0.875,0.17564 1.07143,0.37207 0.47855,0.47855 13.64129,5.06745 15,5.22942 0.58928,0.0702 1.23308,0.28843 1.43065,0.48486 0.19758,0.19643 5.17972,2.76299 11.07143,5.70347 11.65915,5.81894 18.33568,10.89721 31.47375,23.93939 12.82387,12.73027 19.79713,23.80164 24.96891,39.64286 1.0902,3.33928 2.25776,6.17923 2.5946,6.311 0.33683,0.13178 0.45528,0.49383 0.26323,0.80458 -0.19205,0.31075 0.26953,3.41722 1.02574,6.90327 3.47204,16.00575 3.95871,22.13938 3.93182,49.55258 -0.0194,19.7907 -0.32536,28.82462 -1.26995,37.5 -0.68441,6.28571 -1.34739,12.58579 -1.47331,14.00017 -0.1259,1.41439 -0.44498,2.9212 -0.70905,3.34848 -0.26407,0.42728 -0.482,1.68077 -0.48427,2.78554 -0.006,3.06035 -0.44452,6.13773 -1.09978,7.72295 -0.32477,0.78571 -0.60442,2.63291 -0.62142,4.10488 -0.017,1.47196 -0.272,2.67732 -0.56664,2.67857 -0.29464,0.001 -0.53571,0.48803 -0.53571,1.08173 0,2.51019 -10.18638,34.12091 -12.88719,39.99196 -0.72289,1.57143 -1.41364,3.32674 -1.53501,3.90068 -0.12136,0.57395 -0.78316,1.6792 -1.47066,2.45612 -0.6875,0.77692 -1.25,1.6734 -1.25,1.99217 0,0.31878 -0.7846,0.5796 -1.74356,0.5796 -2.24406,0 -2.99379,1.18896 -1.12396,1.78243 1.05146,0.33372 1.43895,1.07848 1.43895,2.76571 0,1.26995 -0.27843,2.61436 -0.61874,2.98758 -1.65318,1.81306 -3.14893,10.43667 -2.76974,15.96883 0.49316,7.19515 3.07829,12.3222 9.31385,18.472 5.86638,5.7857 11.47121,9.06859 17.38908,10.18521 6.09229,1.14954 17.08273,0.55114 20.28422,-1.10441 5.79197,-2.99515 13.67266,-12.79192 14.71736,-18.29567 0.25102,-1.3225 0.75225,-2.78255 1.11381,-3.24457 1.0024,-1.28088 4.09911,0.32537 7.13312,3.69993 2.79916,3.11333 8.98947,12.88891 10.51459,16.60439 0.5241,1.27679 1.2543,2.32143 1.62269,2.32143 0.36838,0 0.47113,0.32143 0.22833,0.71429 -0.2428,0.39285 -0.15477,0.71428 0.19561,0.71428 0.3504,0 0.58477,0.70992 0.52085,1.5776 -0.11664,1.58328 -2.88386,3.53387 -5.71646,4.02951 -0.78572,0.13748 -1.58929,0.47716 -1.78572,0.75484 -0.19642,0.27768 -1.48214,0.94453 -2.85714,1.48189 -1.375,0.53736 -3.35319,1.56375 -4.39598,2.28088 -1.04278,0.71712 -2.10787,1.30385 -2.36684,1.30385 -0.25898,0 -3.72296,2.33036 -7.69775,5.17858 -3.97479,2.84821 -10.08966,7.14064 -13.58862,9.53873 -3.49895,2.39809 -7.29785,5.18159 -8.44199,6.18555 -1.14413,1.00397 -2.09047,1.61332 -2.10296,1.35412 -0.0125,-0.25919 -0.49464,0.15267 -1.07143,0.91526 -0.57679,0.76259 -1.04871,1.10376 -1.04871,0.75817 0,-0.34559 -0.65175,0.0712 -1.44835,0.92626 -0.79658,0.85503 -2.32337,1.76483 -3.39285,2.02176 -1.06948,0.25693 -3.13196,1.06179 -4.58329,1.78857 -3.00813,1.5064 -13.12046,4.90443 -14.59526,4.90443 -0.53914,0 -0.98184,0.24107 -0.98378,0.53572 -0.002,0.29464 -1.51462,0.62393 -3.3615,0.73175 -1.84688,0.10783 -3.5328,0.42925 -3.74647,0.71429 -0.48814,0.65115 1.34814,0.59526 -49.67422,1.5121 -36.86728,0.66249 -56.08941,1.44715 -65,2.65336 -1.17857,0.15955 -3.16331,0.27968 -4.41053,0.26696 -1.24723,-0.0127 -2.46288,0.29272 -2.70145,0.67873 -0.23858,0.38601 -0.82526,0.55209 -1.30375,0.36905 -0.47849,-0.18304 -3.92355,0.15211 -7.6557,0.74478 -3.73214,0.59266 -8.07143,1.23736 -9.64285,1.43267 -1.57143,0.19531 -3.98215,0.50601 -5.35715,0.69045 -6.24703,0.83797 -48.319,1.21694 -147.85109,1.33181 -96.88655,0.1118 -108.30512,0.007 -115.71429,-1.06393 z M 370.84612,824.7287 c 8.43087,-0.0668 26.48603,-5.39977 29.92542,-8.83915 0.53581,-0.53582 3.33973,-2.36294 6.23092,-4.06028 2.8912,-1.69734 6.14754,-3.69875 7.23631,-4.44758 1.08878,-0.74883 2.27192,-1.18084 2.62922,-0.96002 0.3573,0.22082 0.80998,0.14204 1.00597,-0.17507 0.19598,-0.31712 1.56872,-0.65823 3.05053,-0.75802 1.4818,-0.0998 3.06073,-0.48565 3.50873,-0.85746 0.448,-0.3718 0.95759,-0.53297 1.13241,-0.35815 0.17483,0.17483 3.03811,0.0124 6.36286,-0.36091 3.32474,-0.37332 17.13427,-0.87243 30.68784,-1.10912 13.55357,-0.2367 25.76786,-0.65546 27.14286,-0.93058 1.375,-0.27511 4.10714,-0.25408 6.07142,0.0468 3.92225,0.60069 21.59032,0.28257 25,-0.45015 5.58915,-1.20105 15.21908,-7.25729 18.78522,-11.81397 2.55997,-3.27104 0.97456,-2.56346 -4.02399,1.79592 -2.48268,2.16522 -4.81067,3.7534 -5.17331,3.52927 -0.36264,-0.22415 -0.65934,-0.10523 -0.65934,0.26424 0,0.68919 -4.13031,2.33876 -10.23284,4.08681 -2.64966,0.75898 -11.82068,1.06704 -39.64286,1.3316 -19.90765,0.18931 -37.32073,0.503 -38.69573,0.69709 -1.375,0.19409 -5.875,0.55333 -10,0.79831 -4.125,0.24498 -7.98215,0.5668 -8.57143,0.71516 -0.58929,0.14837 -4.28572,0.48755 -8.21429,0.75375 -3.92857,0.26619 -7.23863,0.7334 -7.35568,1.03822 -0.11705,0.30483 -0.78937,0.40346 -1.49407,0.21918 -0.70468,-0.18428 -3.66249,-0.014 -6.57289,0.37847 -2.91041,0.39244 -20.72021,0.89669 -39.57736,1.12056 -18.85714,0.22387 -43.92857,0.5857 -55.71428,0.80407 -46.85761,0.86819 -75.51971,1.30296 -86.07143,1.30561 -12.09267,0.003 -40.14939,-1.35822 -50.35714,-2.44322 -3.53572,-0.37582 -7.74669,-0.79439 -9.35772,-0.93017 -1.61103,-0.13577 -3.23593,-0.43646 -3.61089,-0.6682 -0.37497,-0.23174 -1.62828,-0.40817 -2.78514,-0.39207 -1.15687,0.0161 -3.2284,-0.18216 -4.6034,-0.44059 -1.65114,-0.31033 -2.25747,-0.22987 -1.78571,0.23696 0.64611,0.63935 9.1073,2.33346 16.42857,3.28933 1.57143,0.20517 4.14286,0.54327 5.71429,0.75134 6.30105,0.8343 11.24295,1.07338 41.78571,2.0215 17.48214,0.54268 33.19411,0.82884 34.91549,0.63591 2.19652,-0.24618 2.98267,-0.11275 2.63642,0.4475 -0.33096,0.53551 0.41398,0.79828 2.26308,0.79828 1.51604,0 3.0618,0.28192 3.43501,0.62649 2.86006,2.64052 17.75391,4.65575 31.45085,4.2555 5.30976,-0.15516 9.11989,-0.0947 8.46696,0.13431 -0.65293,0.22904 1.50113,0.45322 4.78681,0.49819 7.04832,0.0965 20.49965,2.01252 23.59674,3.36121 0.65683,0.28603 1.62111,0.59318 2.14286,0.68256 0.52175,0.0894 2.07364,0.5267 3.44864,0.9718 2.75284,0.89112 5.8462,1.38741 12.85714,2.06275 2.55357,0.24598 4.79841,0.58842 4.98853,0.76098 0.19012,0.17256 5.65441,0.15266 12.14286,-0.0442 6.48845,-0.19689 13.08987,-0.36822 14.66983,-0.38072 l 0,-2e-5 z M 517.97347,710.78113 c 14.45181,-3.19137 34.83933,-18.261 41.14112,-30.40984 2.18088,-4.2044 2.40855,-5.21622 2.41075,-10.71429 0.002,-4.9103 -0.30202,-6.64403 -1.58944,-9.06553 -1.74673,-3.28538 -4.69277,-7.76458 -6.23539,-9.48035 -0.54245,-0.60333 -2.37438,-2.677 -4.07095,-4.60815 -1.69656,-1.93114 -5.01323,-5.59049 -7.37037,-8.13188 -2.35715,-2.54138 -6.53572,-7.04442 -9.28572,-10.00675 -2.75,-2.96232 -7.16964,-7.59937 -9.82143,-10.30453 -2.65178,-2.70517 -4.82143,-5.08364 -4.82143,-5.2855 0,-0.88235 -10.3923,-11.71698 -11.60905,-12.10317 -0.95992,-0.30466 -3.23867,1.01758 -7.90552,4.58718 -21.76642,16.64879 -33.75451,30.49417 -39.53301,45.65775 -3.48062,9.13364 -4.50272,14.82445 -4.32809,24.09807 0.21401,11.36611 1.58379,14.42257 10.57048,23.58645 8.2775,8.4407 11.34161,10.10812 21.58817,11.74781 7.98721,1.27814 25.89442,1.52925 30.85988,0.43273 z"
       id="path3598"
       inkscape:connector-curvature="0" />
    <path
       style="fill:#b7c4c8"
       d="m 634.83898,773.38025 c -6.57419,-12.0534 -9.10576,-15.62371 -13.35067,-18.82865 -3.70518,-2.79744 -3.77481,-2.91903 -4.15871,-7.26269 -0.98321,-11.12454 -2.76414,-53.19528 -2.32572,-54.94024 0.67124,-2.6716 4.58486,-6.97738 6.3419,-6.97738 2.29786,0 6.72096,4.96419 7.6529,8.58908 1.57522,6.12703 4.60782,15.15656 5.36003,15.95943 0.41669,0.44475 0.80137,1.36578 0.85484,2.04673 0.24635,3.13721 7.32513,12.71444 15.20859,20.57647 10.58593,10.55714 17.25623,14.99866 46.12276,30.71154 6.67857,3.63533 13.55771,7.57636 15.28696,8.75783 2.93837,2.00756 3.05738,2.21155 1.81872,3.11729 -3.23326,2.36421 -9.55529,2.99419 -49.24854,4.90747 -12.57143,0.60597 -23.33928,1.23843 -23.92857,1.40549 -0.75336,0.21357 -2.42603,-2.17985 -5.63449,-8.06237 z"
       id="path3600"
       inkscape:connector-curvature="0" />
    <path
       style="fill:#b7c4c8"
       d="m 146.5449,835.37167 c -15.3416,-1.60037 -24.11784,-5.86036 -33.57143,-16.29558 -14.45669,-15.95783 -20.827531,-35.48943 -23.575147,-72.27623 -0.601524,-8.05357 -1.39342,-18.66071 -1.75977,-23.57143 -1.867064,-25.02694 -3.664577,-57.43351 -3.463543,-62.44268 0.240386,-5.98968 1.316915,-7.72392 2.567586,-4.13625 1.201823,3.44756 8.122898,11.5128 12.659446,14.75227 13.993928,9.99282 29.711628,13.75948 54.285718,13.00928 6.67857,-0.20389 13.69658,-0.74588 15.59558,-1.20442 6.73017,-1.62511 14.9149,-10.43074 17.90558,-19.26391 1.75142,-5.17294 2.43682,-23.71548 1.14685,-31.02685 -3.65637,-20.7239 -15.65516,-35.66364 -36.89683,-45.94038 -6.72892,-3.25545 -7.29336,-3.39945 -14.22967,-3.63024 l -7.22282,-0.24032 -6.10768,6.66889 c -8.79034,9.59805 -17.98737,20.15762 -22.78689,26.1628 -5.568708,6.9676 -16.32288,19.43467 -16.764457,19.43467 -0.194404,0 -0.179596,-1.84822 0.03291,-4.10715 0.212503,-2.25892 0.875903,-10.69642 1.474224,-18.75 0.598321,-8.05357 1.563479,-19.46428 2.144796,-25.35714 2.513586,-25.48043 3.176619,-33.40213 2.841132,-33.94496 -0.196477,-0.31791 -0.03794,-1.41783 0.352321,-2.44428 0.390253,-1.02644 1.213138,-5.31234 1.828631,-9.52422 1.752873,-11.99509 4.503493,-23.53833 7.186286,-30.15797 1.35334,-3.33928 2.53378,-6.39285 2.62319,-6.78571 0.0894,-0.39286 0.34134,-0.875 0.55984,-1.07143 0.21851,-0.19643 1.6215,-2.60714 3.11776,-5.35714 8.7437,-16.07019 26.87217,-38.36378 40.94928,-50.35761 2.84824,-2.42672 5.41966,-4.79044 5.71429,-5.25271 0.91971,-1.44304 11.72637,-8.14621 16.96425,-10.5226 7.2872,-3.30616 22.64976,-8.22425 29.98126,-9.59805 5.34367,-1.00131 9.78748,-1.13822 27.83172,-0.85744 l 21.47273,0.33412 10,2.51919 c 5.5,1.38556 11.125,2.68887 12.5,2.89626 1.375,0.20738 8.92857,2.83646 16.78572,5.84241 20.904,7.99734 25.22349,9.4245 37.85714,12.508 17.14989,4.18579 29.98414,5.97041 66.42857,9.23699 14.64424,1.3126 19.94337,1.73845 31.78572,2.55439 12.9255,0.89057 29.81692,2.43074 35.71428,3.25644 14.1852,1.9861 29.9298,5.01697 32.5,6.25631 1.57143,0.75774 4.78572,1.93839 7.14286,2.62365 4.4076,1.28138 16.43347,7.05511 24.64286,11.83127 6.8793,4.00232 15.05355,10.86143 24.30107,20.39131 8.98093,9.25517 13.30996,14.89927 17.73593,23.12378 2.97542,5.52904 9.22469,21.13099 9.72751,24.28572 0.15654,0.98214 1.17757,6.28571 2.26896,11.78571 l 1.98435,10 -0.0406,33.92857 c -0.0223,18.66072 -0.24103,35.53572 -0.48605,37.5 -0.24502,1.96429 -0.59119,4.85714 -0.76927,6.42857 -1.09611,9.67227 -2.05848,16.23408 -2.91886,19.90177 -0.54026,2.30312 -0.80959,4.63757 -0.5985,5.18767 0.2111,0.5501 0.0599,1.39788 -0.33588,1.88394 -0.39584,0.48607 -1.41362,3.4552 -2.26175,6.59805 -1.40545,5.20808 -9.93832,30.78107 -12.27567,36.79013 -1.4666,3.77047 -4.1198,7.13844 -5.62348,7.13844 -1.97009,0 -2.39359,1.24065 -0.72781,2.13215 1.70067,0.91017 1.85346,3.14621 0.40478,5.92348 -1.67399,3.20921 -2.74411,10.17288 -2.36899,15.4158 0.47522,6.64184 3.02627,11.93442 8.50005,17.6348 8.20805,8.54782 15.37025,11.75092 26.27531,11.75092 3.50273,0 7.83954,-0.47642 9.89594,-1.0871 6.64551,-1.9735 15.17509,-11.57736 17.27313,-19.44862 0.95885,-3.59738 2.07972,-3.82859 5.58802,-1.15268 4.57026,3.48591 15.89255,22.33634 14.92715,24.85214 -0.25041,0.65256 -1.66517,1.67419 -3.1439,2.27027 -9.12269,3.67739 -18.29421,9.53521 -45.9029,29.31799 -6.20791,4.44823 -22.78852,11.15315 -30,12.1315 -1.375,0.18655 -2.98215,0.51158 -3.57143,0.72229 -1.41983,0.50769 -10.07316,0.77733 -41.78572,1.30204 -36.82146,0.60923 -62.841,1.65688 -72.5,2.91915 -4.51785,0.5904 -9.98214,1.22772 -12.14285,1.41625 -2.16072,0.18855 -5.69643,0.69487 -7.85715,1.12517 -2.16071,0.4303 -6.5,1.07633 -9.64285,1.43564 -7.28647,0.83303 -254.49845,1.42235 -262.14286,0.62491 z m 223.21429,-10.67229 c 15.31748,-1.06163 24.22948,-4.11723 37.85714,-12.97981 9.20981,-5.9895 15.36003,-7.46604 33.77932,-8.10974 26.61961,-0.93027 42.62468,-1.31231 59.79211,-1.42726 21.73725,-0.14554 22.8493,-0.38195 31.98871,-6.8003 4.37194,-3.0703 9.02182,-7.86812 7.62549,-7.86812 -0.26569,0 -2.45722,1.52678 -4.87007,3.39286 -5.50233,4.25546 -7.5168,5.36194 -13.31556,7.31376 -4.43505,1.49281 -6.33729,1.59056 -42.5,2.18394 -20.82143,0.34165 -41.55357,0.95857 -46.07143,1.37094 -4.51786,0.41237 -10.46429,0.91137 -13.21429,1.1089 -2.75,0.19752 -6.125,0.55355 -7.5,0.79115 -2.68989,0.46484 -6.31132,0.86441 -11.42857,1.26099 -1.76785,0.13701 -22.33928,0.62941 -45.71428,1.09423 -23.375,0.46483 -53.42857,1.09503 -66.78572,1.40046 -33.56483,0.76751 -97.91433,0.4576 -110,-0.52976 -5.5,-0.44933 -12.3917,-0.99642 -15.3149,-1.21575 -2.92319,-0.21933 -5.49462,-0.50925 -5.71428,-0.64425 -0.21967,-0.13501 -2.32796,-0.44435 -4.6851,-0.68742 -2.35715,-0.24307 -5.41072,-0.63479 -6.78572,-0.87049 -1.80221,-0.30894 -2.2948,-0.20914 -1.76482,0.35755 0.88247,0.94359 14.22205,3.29617 24.62472,4.34284 10.16301,1.02255 40.35467,2.14517 60.17254,2.23739 8.93569,0.0416 16.42788,0.36873 16.6493,0.72698 0.22141,0.35827 1.20313,0.65139 2.18161,0.65139 0.97846,0 2.67379,0.4627 3.7674,1.02823 4.65756,2.40852 11.89235,3.37175 30.17767,4.01781 20.33343,0.71841 30.80388,1.92897 39.97786,4.6221 12.00032,3.52284 27.50679,4.58735 47.07087,3.23138 z M 522.2123,709.68945 c 13.82428,-4.80948 32.22985,-19.4737 37.20477,-29.64208 2.26946,-4.6386 3.01568,-11.09911 1.82719,-15.81905 -1.69133,-6.71686 -9.74712,-16.75245 -31.47807,-39.21418 -4.18084,-4.32142 -9.87756,-10.58928 -12.65938,-13.92857 -2.78182,-3.33928 -6.38441,-7.13748 -8.00575,-8.44042 l -2.94791,-2.36899 -2.6451,1.63476 c -4.58145,2.8315 -16.70567,12.79451 -23.29335,19.14119 -11.76901,11.33846 -19.80802,23.97136 -23.43008,36.81918 -1.31348,4.65903 -1.61627,7.56289 -1.63963,15.72463 -0.0283,9.88065 0.001,10.07168 2.29877,14.74273 1.78008,3.6194 3.92787,6.26237 9.13255,11.23808 9.2262,8.82031 12.48623,10.30159 24.71218,11.22868 3.28388,0.24902 6.13141,0.61414 6.32784,0.81139 0.19643,0.19725 4.85714,0.17609 10.35714,-0.047 7.44134,-0.30185 11.08457,-0.78297 14.23883,-1.88034 z"
       id="path3602"
       inkscape:connector-curvature="0" />
    <path
       style="fill:#b7c4c8"
       d="m 561.99226,926.10153 c -1.73519,-4.13603 4.5318,-9.19336 0.63602,-12.40126 -4.00347,-1.39 -6.69003,2.68973 -7.97347,5.86092 -1.58256,4.12216 -8.28047,4.41616 -10.196,0.54435 0.69482,-3.70224 7.69146,-1.41675 8.45802,-6.00369 0.6269,-5.7217 -6.22897,-3.20035 -9.54259,-4.62725 -4.39273,-1.21727 -8.7409,-3.40985 -13.42492,-2.56566 -7.92413,0.17487 -16.6909,-0.98783 -23.57655,3.83189 -2.95225,2.05201 -7.82809,0.0346 -7.22195,-3.88204 0.46026,-3.5762 1.52143,-8.25528 5.93252,-8.55666 5.68662,-0.48954 11.42958,0.21308 17.14062,0.068 8.67994,0.0329 17.3104,1.68126 25.41451,4.73823 4.76091,2.00733 9.60066,-0.62572 12.81407,-4.08957 3.18965,-3.80851 5.12275,0.3016 4.40381,3.65645 -1.38947,5.99307 5.9869,3.10581 9.00432,6.24736 3.1524,2.41418 2.9503,7.20111 1.70476,10.5931 -2.08316,4.70146 -7.36431,6.45637 -10.96871,9.68172 -2.52399,1.1117 -3.26252,-1.1224 -2.60446,-3.09591 z"
       id="path3604"
       inkscape:connector-curvature="0" />
    <path
       style="fill:#b7c4c8"
       d="m 561.00532,928.74572 c -0.20817,-2.05237 -0.14166,-5.01729 0.1478,-6.58872 0.44359,-2.40811 0.57186,-1.86381 0.81618,3.4633 0.31701,6.91185 -0.35795,9.10021 -0.96398,3.12542 z"
       id="path3606"
       inkscape:connector-curvature="0" />
    <path
       style="fill:#b7c4c8"
       d="m 557.22672,929.33233 c -0.96429,-0.96429 -1.75325,-2.57143 -1.75325,-3.57143 0,-1.46796 0.34738,-1.81818 1.80339,-1.81818 1.93641,0 3.19661,2.13028 3.19661,5.40364 0,2.2112 -1.02595,2.20677 -3.24675,-0.014 z"
       id="path3608"
       inkscape:connector-curvature="0" />
    <path
       style="fill:#b7c4c8"
       d="m 555.47614,921.62129 c 0.006,-1.88799 2.73574,-5.21609 4.94864,-6.03261 2.07562,-0.76585 2.26628,-0.72898 1.8467,0.35715 -0.25735,0.66614 -0.84544,2.41653 -1.30687,3.88974 -0.74393,2.37514 -1.10247,2.67858 -3.16505,2.67858 -1.3861,0 -2.32501,-0.36081 -2.32342,-0.89286 z"
       id="path3610"
       inkscape:connector-curvature="0" />
    <path
       style="fill:#b7c4c8"
       d="M 23.786081,645.48085 C 18.434669,642.7187 11.915729,641.69201 9.1448457,643.17494 7.304025,644.16012 7.2247442,643.60528 8.44868,638.3029 c 1.2953014,-5.61155 0.5615342,-6.52646 -6.4428001,-8.03327 -9.481683,-2.03974 -12.2550459,-4.96334 -12.2357569,-12.89859 0.006,-2.47486 0.2929438,-4.94504 0.6376183,-5.48929 1.1143199,-1.75952 4.2196347,-0.22523 8.64879936,4.27324 2.33716074,2.37373 4.59197434,4.10413 5.01069784,3.84535 0.5309357,-0.32814 0.5109593,-0.77218 -0.066014,-1.46739 -0.4550314,-0.54828 -0.9983807,-3.73861 -1.2074428,-7.08963 -0.3246122,-5.20313 -0.1927107,-6.29983 0.90335,-7.51096 0.7059057,-0.78002 1.8009071,-1.41822 2.4333371,-1.41822 1.5484436,0 6.2779075,2.58413 9.3271765,5.09627 3.500198,2.88364 4.805108,2.65661 6.422861,-1.11745 1.629384,-3.8012 3.340755,-4.83772 7.92878,-4.80218 4.926566,0.0382 8.868773,2.41317 11.089195,6.68075 3.549204,6.82146 -2.481607,17.1083 -11.213301,19.12668 -5.172999,1.19576 -7.068852,2.47384 -7.068852,4.76542 0,1.02268 1.607143,4.83184 3.571428,8.4648 1.964286,3.63296 3.571429,6.80667 3.571429,7.05269 0,0.69073 -0.70227,0.42028 -5.973104,-2.30027 z"
       id="path3622"
       inkscape:connector-curvature="0" />
    <path
       style="fill:#2b0000"
       id="path3630"
       d="m 499.94742,950.1977 c 2.8356,-3.52135 5.62518,-7.08038 8.53676,-10.5393 6.55932,-7.83403 12.88182,-15.86078 19.38995,-23.7364 8.84017,-10.35124 18.2247,-20.21394 27.11299,-30.52383 3.76415,-4.87449 8.23209,-9.29471 11.31629,-14.66212 0.17807,-0.3865 0.35613,-0.77301 0.53419,-1.15952 0,0 9.52866,-4.36418 9.52866,-4.36418 l 0,0 c -0.18208,0.42547 -0.36416,0.85094 -0.54625,1.27642 -3.1375,5.63316 -7.96935,10.08735 -11.90768,15.13925 -8.99287,10.26125 -18.39255,20.1552 -27.23503,30.54738 -6.35851,7.75758 -12.49516,15.69165 -18.7939,23.49784 -2.85575,3.3571 -5.53962,6.85632 -8.2341,10.34356 0,0 -9.70188,4.1809 -9.70188,4.1809 z"
       inkscape:connector-curvature="0" />
  </g>
</svg>
