<?xml version="1.0" encoding="UTF-8" standalone="no"?>
<svg
   xmlns:dc="http://purl.org/dc/elements/1.1/"
   xmlns:cc="http://creativecommons.org/ns#"
   xmlns:rdf="http://www.w3.org/1999/02/22-rdf-syntax-ns#"
   xmlns:svg="http://www.w3.org/2000/svg"
   xmlns="http://www.w3.org/2000/svg"
   xmlns:sodipodi="http://sodipodi.sourceforge.net/DTD/sodipodi-0.dtd"
   xmlns:inkscape="http://www.inkscape.org/namespaces/inkscape"
   width="206.95653mm"
   height="160.73914mm"
   viewBox="0 0 733.31053 569.54812"
   id="svg2"
   version="1.1"
   inkscape:version="1.0.2 (e86c870879, 2021-01-15)"
   sodipodi:docname="zwinkerwal.svg"
   inkscape:export-filename="/home/martin/dev/codeahoi/DeinWal.de/src/assets/zwinkerwal.png"
   inkscape:export-xdpi="34.2687"
   inkscape:export-ydpi="34.2687">
  <title
     id="title4547">DeinWal.de</title>
  <defs
     id="defs4" />
  <sodipodi:namedview
     id="base"
     pagecolor="#ffffff"
     bordercolor="#666666"
     borderopacity="1.0"
     inkscape:pageopacity="0.0"
     inkscape:pageshadow="2"
     inkscape:zoom="1.4"
     inkscape:cx="187.25841"
     inkscape:cy="393.44864"
     inkscape:document-units="px"
     inkscape:current-layer="layer1"
     showgrid="false"
     inkscape:object-paths="true"
     inkscape:window-width="2556"
     inkscape:window-height="1401"
     inkscape:window-x="2560"
     inkscape:window-y="18"
     inkscape:window-maximized="0"
     fit-margin-top="0"
     fit-margin-left="0"
     fit-margin-right="0"
     fit-margin-bottom="0"
     inkscape:document-rotation="0" />
  <metadata
     id="metadata7">
    <rdf:RDF>
      <cc:Work
         rdf:about="">
        <dc:format>image/svg+xml</dc:format>
        <dc:type
           rdf:resource="http://purl.org/dc/dcmitype/StillImage" />
        <dc:title>DeinWal.de</dc:title>
        <dc:publisher>
          <cc:Agent>
            <dc:title>https://binfalse.de</dc:title>
          </cc:Agent>
        </dc:publisher>
        <cc:license
           rdf:resource="http://creativecommons.org/licenses/by-sa/4.0/" />
      </cc:Work>
      <cc:License
         rdf:about="http://creativecommons.org/licenses/by-sa/4.0/">
        <cc:permits
           rdf:resource="http://creativecommons.org/ns#Reproduction" />
        <cc:permits
           rdf:resource="http://creativecommons.org/ns#Distribution" />
        <cc:requires
           rdf:resource="http://creativecommons.org/ns#Notice" />
        <cc:requires
           rdf:resource="http://creativecommons.org/ns#Attribution" />
        <cc:permits
           rdf:resource="http://creativecommons.org/ns#DerivativeWorks" />
        <cc:requires
           rdf:resource="http://creativecommons.org/ns#ShareAlike" />
      </cc:License>
    </rdf:RDF>
  </metadata>
  <g
     inkscape:label="Ebene 1"
     inkscape:groupmode="layer"
     id="layer1"
     transform="translate(12.577469,-416.89024)">
    <path
       style="fill:#fff6d5;fill-rule:evenodd;stroke:#000000;stroke-width:1px;stroke-linecap:butt;stroke-linejoin:miter;stroke-opacity:1"
       d="m 490.71429,858.79078 c -114.28572,125 -112.85715,123.57142 -112.85715,123.57142 L 577.14286,985.93363 660,864.50506 Z"
       id="path3632"
       inkscape:connector-curvature="0" />
    <path
       style="fill:#c8d3d6;fill-opacity:1;fill-rule:evenodd;stroke:#000000;stroke-width:2.50500011;stroke-linecap:butt;stroke-linejoin:miter;stroke-miterlimit:4;stroke-dasharray:none;stroke-opacity:1"
       d="M 88.715561,747.54686 C 81.558819,742.98704 73.157103,739.08432 69.28382,731.0307 63.838187,723.28851 58.382011,715.54006 54.059526,707.10163 47.222919,695.73168 46.816402,691.60239 39.579881,670.29694 33.66308,651.8017 28.649775,644.28377 24.254794,635.46921 c -4.71541,-8.84115 7.797814,-5.32135 11.472724,-9.49426 6.675063,-4.59005 10.219448,-15.68816 3.387292,-21.67796 -4.964217,-4.56173 -14.945707,-5.76231 -18.199217,1.41313 -0.576011,8.20202 -5.773223,-1.39902 -10.233803,-2.30526 -4.8723682,-3.94693 -11.00232795,-0.19635 -8.5585195,5.94671 -1.0086572,2.76907 1.0634494,11.88274 1.4867921,10.22679 -3.84376417,-3.65181 -8.2046734,-10.44591 -13.9534556,-9.20101 -0.807427,5.2006 -2.453873,11.8191 1.9446304,16.11275 3.8767919,4.63772 16.6865743,11.02004 21.6938336,12.2244 26.28481,31.58244 37.578171,87.50944 44.649603,92.75242 20.900849,15.49654 28.804107,23.42154 30.938488,30.40923"
       id="path3570"
       inkscape:connector-curvature="0"
       sodipodi:nodetypes="ccccccccccccccsc" />
    <path
       style="fill:#c8d3d6;fill-opacity:1;fill-rule:evenodd;stroke:#000000;stroke-width:3.63000011;stroke-linecap:butt;stroke-linejoin:miter;stroke-miterlimit:4;stroke-dasharray:none;stroke-opacity:1"
       d="M 135.64992,836.1617 C 96.915165,822.44839 87.743303,776.59541 87.723503,740.26821 86.633484,703.93994 80.360446,667.64659 83.400225,631.10924 c 2.303961,-32.78256 4.541575,-65.64302 9.029979,-98.14494 6.999892,-38.08308 33.168586,-68.57987 61.154536,-93.48409 43.65888,-30.59804 103.92225,-24.10728 149.62296,-1.59765 48.50742,17.17787 101.03234,15.43579 151.61265,20.76122 49.86639,2.51393 102.61978,30.19905 119.72482,79.43232 13.78031,42.61094 9.63089,88.6974 2.97177,132.24837 -4.21875,24.25746 -15.06151,46.6521 -23.70066,69.31039 -7.16809,28.0708 30.66062,51.44149 52.21513,32.22766 18.14386,-18.6799 5.09275,-46.19759 7.99035,-69.05487 -5.43543,-22.13095 15.0588,-26.97735 17.62881,-4.46018 9.37875,41.77581 54.33444,55.32791 86.4969,75.25963 -8.04023,11.51695 -45.51184,4.96551 -65.33583,8.31533 -26.98698,-0.57957 -46.17232,18.34161 -65.75733,33.60683 -46.75811,26.8749 -101.81569,6.80516 -152.07039,16.57981 -22.96894,3.03139 -46.01113,7.00978 -62.84106,5.25316 -74.54123,-2.56336 -155.57798,3.93578 -236.49294,-1.20053 z"
       id="path3413"
       inkscape:connector-curvature="0"
       sodipodi:nodetypes="ccccccccccccccccccc" />
    <path
       style="fill:#fbfdff;fill-opacity:1;fill-rule:evenodd;stroke:#000000;stroke-width:2.505;stroke-linecap:butt;stroke-linejoin:miter;stroke-miterlimit:4;stroke-dasharray:none;stroke-opacity:1"
       d="m 88.733747,618.04027 c -5.305082,19.20612 7.962941,54.54501 24.916793,60.52073 16.52914,5.86736 32.15019,1.92751 49.44047,-0.0351 15.8564,-2.4713 22.99328,-18.74403 23.1436,-33.22424 2.17594,-24.32946 -3.10475,-45.15163 -25.55851,-55.76643 -7.98219,-4.78204 -36.80858,-2.45308 -36.80858,-2.45308 -15.65278,1.82132 -30.97336,15.24158 -35.133773,30.95808 z"
       id="path3415"
       inkscape:connector-curvature="0"
       sodipodi:nodetypes="cccccsc" />
    <path
       style="fill:#b7c4c8"
       d="m 561.00532,928.74572 c -0.20817,-2.05237 -0.14166,-5.01729 0.1478,-6.58872 0.44359,-2.40811 0.57186,-1.86381 0.81618,3.4633 0.31701,6.91185 -0.35795,9.10021 -0.96398,3.12542 z"
       id="path3606"
       inkscape:connector-curvature="0" />
    <path
       style="fill:#b7c4c8"
       d="m 557.22672,929.33233 c -0.96429,-0.96429 -1.75325,-2.57143 -1.75325,-3.57143 0,-1.46796 0.34738,-1.81818 1.80339,-1.81818 1.93641,0 3.19661,2.13028 3.19661,5.40364 0,2.2112 -1.02595,2.20677 -3.24675,-0.014 z"
       id="path3608"
       inkscape:connector-curvature="0" />
    <path
       style="fill:#b7c4c8"
       d="m 555.47614,921.62129 c 0.006,-1.88799 2.73574,-5.21609 4.94864,-6.03261 2.07562,-0.76585 2.26628,-0.72898 1.8467,0.35715 -0.25735,0.66614 -0.84544,2.41653 -1.30687,3.88974 -0.74393,2.37514 -1.10247,2.67858 -3.16505,2.67858 -1.3861,0 -2.32501,-0.36081 -2.32342,-0.89286 z"
       id="path3610"
       inkscape:connector-curvature="0" />
    <path
       style="fill:#2b0000"
       id="path3630"
       d="m 499.94742,950.1977 c 2.8356,-3.52135 5.62518,-7.08038 8.53676,-10.5393 6.55932,-7.83403 12.88182,-15.86078 19.38995,-23.7364 8.84017,-10.35124 18.2247,-20.21394 27.11299,-30.52383 3.76415,-4.87449 8.23209,-9.29471 11.31629,-14.66212 0.17807,-0.3865 0.35613,-0.77301 0.53419,-1.15952 0,0 9.52866,-4.36418 9.52866,-4.36418 v 0 c -0.18208,0.42547 -0.36416,0.85094 -0.54625,1.27642 -3.1375,5.63316 -7.96935,10.08735 -11.90768,15.13925 -8.99287,10.26125 -18.39255,20.1552 -27.23503,30.54738 -6.35851,7.75758 -12.49516,15.69165 -18.7939,23.49784 -2.85575,3.3571 -5.53962,6.85632 -8.2341,10.34356 0,0 -9.70188,4.1809 -9.70188,4.1809 z"
       inkscape:connector-curvature="0" />
    <ellipse
       id="path3712"
       cx="141.62946"
       cy="637.7384"
       rx="25.111609"
       ry="23.4375"
       style="stroke-width:0.9375" />
    <a
       id="a4583"
       style="stroke-width:3;stroke-miterlimit:4;stroke-dasharray:none">
      <path
         sodipodi:nodetypes="cccccccccccccccccccc"
         inkscape:connector-curvature="0"
         id="path3731"
         d="m 541.08319,899.82582 c 4.30298,-10.83648 54.13248,-54.15849 61.60708,-61.69593 11.74097,-14.58265 19.39542,-30.20155 19.68543,-48.35851 0.55031,-12.05457 -14.34074,-27.2825 -27.61445,-32.92118 -16.7587,-7.17027 -28.49882,-2.89981 -40.94497,-17.21534 2.40294,-6.17158 3.93737,-10.40534 6.7478,-16.96071 20.60666,2.48327 49.25369,24.12973 64.74574,36.98188 7.79867,13.0335 17.74506,27.14442 15.32198,43.29512 3.12628,17.45214 -16.4102,26.23379 -23.87618,39.76895 -12.60049,14.62254 -28.37764,26.06303 -41.16695,40.56849 -9.7114,8.50865 -11.06231,23.56218 -34.50548,16.53723 -12.46844,-3.60461 -25.4348,-2.18629 -38.22605,-2.46362 -7.83098,5.55794 -4.3306,21.295 6.25281,12.75837 8.55271,-4.29302 18.14928,-2.32298 27.31862,-2.75837 4.31995,4.69325 25.31515,2.78611 10.73392,9.87675 -12.45596,4.77472 6.92548,7.00641 11.89498,6.29119 5.63554,12.60004 -0.70863,-4.31932 5.22824,-9.02508 -16.45581,-2.77234 -8.54343,28.62066 4.00398,13.10476 13.25525,-5.38135 7.29347,-27.44536 -6.24879,-29.07253 0,0 -5.85903,5.78871 -20.95771,1.28853"
         style="fill:#c8d3d6;fill-opacity:1;stroke:#000000;stroke-width:3;stroke-linecap:butt;stroke-linejoin:miter;stroke-miterlimit:4;stroke-dasharray:none;stroke-opacity:1" />
    </a>
    <path
       style="fill:#edeeee;fill-opacity:1;stroke:#000000;stroke-width:1.94263864;stroke-linecap:butt;stroke-linejoin:miter;stroke-miterlimit:4;stroke-dasharray:none;stroke-opacity:1"
       d="m 170.95789,768.8392 c 137.11159,93.12078 125.40076,10.79669 259.51287,6.5323 48.7287,0.61374 50.49195,-20.9448 56.78847,-40.37182 -6.98021,19.80662 -16.94127,40.50267 -46.05892,40.39083 -16.6718,-0.13216 -80.43884,4.36878 -159.45239,4.04499 -56.72122,-0.23245 -91.00874,-6.46908 -110.79003,-10.5963 -46.34615,-9.66978 -50.77482,-28.89726 -49.66396,-37.39889 -4.13239,13.22925 24.87182,36.11127 49.66396,37.39889 z"
       id="path4586-0"
       inkscape:connector-curvature="0"
       sodipodi:nodetypes="ccccsscc" />
    <path
       style="fill:#6e7984;fill-opacity:0.47887328;fill-rule:evenodd;stroke:#000000;stroke-width:2.2349999;stroke-linecap:butt;stroke-linejoin:miter;stroke-miterlimit:4;stroke-dasharray:none;stroke-opacity:1"
       d="m 371.97574,461.47349 c 13.42142,2.92614 -1.99802,10.27779 -8.78053,10.78725 -21.7297,1.1586 -40.90339,-5.87704 -42.18909,-11.09206 3.11122,-3.53012 2.81089,-6.9321 17.6088,-6.86067 14.79791,0.0714 19.87808,5.15367 33.36082,7.16548 z"
       id="path3417-0"
       inkscape:connector-curvature="0"
       sodipodi:nodetypes="ccczc" />
    <path
       id="path848"
       style="font-variation-settings:normal;opacity:1;vector-effect:none;fill:none;fill-opacity:1;stroke:#000000;stroke-width:2.505;stroke-linecap:round;stroke-linejoin:round;stroke-miterlimit:4;stroke-dasharray:none;stroke-dashoffset:0;stroke-opacity:1;stop-color:#000000;stop-opacity:1"
       d="m 358.64976,643.26159 c -6.71833,8.18546 2.5977,16.0794 7.71086,17.45419 5.11316,1.37479 38.56266,-16.01558 58.93855,-16.22442 15.94015,-0.16337 38.00006,8.60795 46.35835,11.74473"
       sodipodi:nodetypes="czac" />
  </g>
</svg>
